<?xml version="1.0" encoding="utf-8" standalone="no"?>
<!DOCTYPE svg PUBLIC "-//W3C//DTD SVG 1.1//EN"
  "http://www.w3.org/Graphics/SVG/1.1/DTD/svg11.dtd">
<!-- Created with matplotlib (https://matplotlib.org/) -->
<svg height="345.6pt" version="1.1" viewBox="0 0 460.8 345.6" width="460.8pt" xmlns="http://www.w3.org/2000/svg" xmlns:xlink="http://www.w3.org/1999/xlink">
 
 <defs>
  <style type="text/css">*{stroke-linecap:butt;stroke-linejoin:round;}</style>
 </defs>
 <g id="figure_1">
  <g id="patch_1">
   <path d="M 0 345.6 
L 460.8 345.6 
L 460.8 0 
L 0 0 
z
" style="fill:#ffffff;"/>
  </g>
  <g id="axes_1">
   <g id="patch_2">
    <path d="M 57.6 307.584 
L 414.72 307.584 
L 414.72 41.472 
L 57.6 41.472 
z
" style="fill:#ffffff;"/>
   </g>
   <g id="matplotlib.axis_1">
    <g id="xtick_1">
     <g id="line2d_1">
      <defs>
       <path d="M 0 0 
L 0 3.5 
" id="m99c9c8ceab" style="stroke:#000000;stroke-width:0.8;"/>
      </defs>
      <g>
       <use style="stroke:#000000;stroke-width:0.8;" x="73.832727" xlink:href="#m99c9c8ceab" y="307.584"/>
      </g>
     </g>
     <g id="text_1">
      <!-- 0 -->
      <g transform="translate(70.651477 322.182437)scale(0.1 -0.1)">
       <defs>
        <path d="M 31.78125 66.40625 
Q 24.171875 66.40625 20.328125 58.90625 
Q 16.5 51.421875 16.5 36.375 
Q 16.5 21.390625 20.328125 13.890625 
Q 24.171875 6.390625 31.78125 6.390625 
Q 39.453125 6.390625 43.28125 13.890625 
Q 47.125 21.390625 47.125 36.375 
Q 47.125 51.421875 43.28125 58.90625 
Q 39.453125 66.40625 31.78125 66.40625 
z
M 31.78125 74.21875 
Q 44.046875 74.21875 50.515625 64.515625 
Q 56.984375 54.828125 56.984375 36.375 
Q 56.984375 17.96875 50.515625 8.265625 
Q 44.046875 -1.421875 31.78125 -1.421875 
Q 19.53125 -1.421875 13.0625 8.265625 
Q 6.59375 17.96875 6.59375 36.375 
Q 6.59375 54.828125 13.0625 64.515625 
Q 19.53125 74.21875 31.78125 74.21875 
z
" id="DejaVuSans-48"/>
       </defs>
       <use xlink:href="#DejaVuSans-48"/>
      </g>
     </g>
    </g>
    <g id="xtick_2">
     <g id="line2d_2">
      <g>
       <use style="stroke:#000000;stroke-width:0.8;" x="125.503103" xlink:href="#m99c9c8ceab" y="307.584"/>
      </g>
     </g>
     <g id="text_2">
      <!-- 1 -->
      <g transform="translate(122.321853 322.182437)scale(0.1 -0.1)">
       <defs>
        <path d="M 12.40625 8.296875 
L 28.515625 8.296875 
L 28.515625 63.921875 
L 10.984375 60.40625 
L 10.984375 69.390625 
L 28.421875 72.90625 
L 38.28125 72.90625 
L 38.28125 8.296875 
L 54.390625 8.296875 
L 54.390625 0 
L 12.40625 0 
z
" id="DejaVuSans-49"/>
       </defs>
       <use xlink:href="#DejaVuSans-49"/>
      </g>
     </g>
    </g>
    <g id="xtick_3">
     <g id="line2d_3">
      <g>
       <use style="stroke:#000000;stroke-width:0.8;" x="177.173479" xlink:href="#m99c9c8ceab" y="307.584"/>
      </g>
     </g>
     <g id="text_3">
      <!-- 2 -->
      <g transform="translate(173.992229 322.182437)scale(0.1 -0.1)">
       <defs>
        <path d="M 19.1875 8.296875 
L 53.609375 8.296875 
L 53.609375 0 
L 7.328125 0 
L 7.328125 8.296875 
Q 12.9375 14.109375 22.625 23.890625 
Q 32.328125 33.6875 34.8125 36.53125 
Q 39.546875 41.84375 41.421875 45.53125 
Q 43.3125 49.21875 43.3125 52.78125 
Q 43.3125 58.59375 39.234375 62.25 
Q 35.15625 65.921875 28.609375 65.921875 
Q 23.96875 65.921875 18.8125 64.3125 
Q 13.671875 62.703125 7.8125 59.421875 
L 7.8125 69.390625 
Q 13.765625 71.78125 18.9375 73 
Q 24.125 74.21875 28.421875 74.21875 
Q 39.75 74.21875 46.484375 68.546875 
Q 53.21875 62.890625 53.21875 53.421875 
Q 53.21875 48.921875 51.53125 44.890625 
Q 49.859375 40.875 45.40625 35.40625 
Q 44.1875 33.984375 37.640625 27.21875 
Q 31.109375 20.453125 19.1875 8.296875 
z
" id="DejaVuSans-50"/>
       </defs>
       <use xlink:href="#DejaVuSans-50"/>
      </g>
     </g>
    </g>
    <g id="xtick_4">
     <g id="line2d_4">
      <g>
       <use style="stroke:#000000;stroke-width:0.8;" x="228.843854" xlink:href="#m99c9c8ceab" y="307.584"/>
      </g>
     </g>
     <g id="text_4">
      <!-- 3 -->
      <g transform="translate(225.662604 322.182437)scale(0.1 -0.1)">
       <defs>
        <path d="M 40.578125 39.3125 
Q 47.65625 37.796875 51.625 33 
Q 55.609375 28.21875 55.609375 21.1875 
Q 55.609375 10.40625 48.1875 4.484375 
Q 40.765625 -1.421875 27.09375 -1.421875 
Q 22.515625 -1.421875 17.65625 -0.515625 
Q 12.796875 0.390625 7.625 2.203125 
L 7.625 11.71875 
Q 11.71875 9.328125 16.59375 8.109375 
Q 21.484375 6.890625 26.8125 6.890625 
Q 36.078125 6.890625 40.9375 10.546875 
Q 45.796875 14.203125 45.796875 21.1875 
Q 45.796875 27.640625 41.28125 31.265625 
Q 36.765625 34.90625 28.71875 34.90625 
L 20.21875 34.90625 
L 20.21875 43.015625 
L 29.109375 43.015625 
Q 36.375 43.015625 40.234375 45.921875 
Q 44.09375 48.828125 44.09375 54.296875 
Q 44.09375 59.90625 40.109375 62.90625 
Q 36.140625 65.921875 28.71875 65.921875 
Q 24.65625 65.921875 20.015625 65.03125 
Q 15.375 64.15625 9.8125 62.3125 
L 9.8125 71.09375 
Q 15.4375 72.65625 20.34375 73.4375 
Q 25.25 74.21875 29.59375 74.21875 
Q 40.828125 74.21875 47.359375 69.109375 
Q 53.90625 64.015625 53.90625 55.328125 
Q 53.90625 49.265625 50.4375 45.09375 
Q 46.96875 40.921875 40.578125 39.3125 
z
" id="DejaVuSans-51"/>
       </defs>
       <use xlink:href="#DejaVuSans-51"/>
      </g>
     </g>
    </g>
    <g id="xtick_5">
     <g id="line2d_5">
      <g>
       <use style="stroke:#000000;stroke-width:0.8;" x="280.51423" xlink:href="#m99c9c8ceab" y="307.584"/>
      </g>
     </g>
     <g id="text_5">
      <!-- 4 -->
      <g transform="translate(277.33298 322.182437)scale(0.1 -0.1)">
       <defs>
        <path d="M 37.796875 64.3125 
L 12.890625 25.390625 
L 37.796875 25.390625 
z
M 35.203125 72.90625 
L 47.609375 72.90625 
L 47.609375 25.390625 
L 58.015625 25.390625 
L 58.015625 17.1875 
L 47.609375 17.1875 
L 47.609375 0 
L 37.796875 0 
L 37.796875 17.1875 
L 4.890625 17.1875 
L 4.890625 26.703125 
z
" id="DejaVuSans-52"/>
       </defs>
       <use xlink:href="#DejaVuSans-52"/>
      </g>
     </g>
    </g>
    <g id="xtick_6">
     <g id="line2d_6">
      <g>
       <use style="stroke:#000000;stroke-width:0.8;" x="332.184606" xlink:href="#m99c9c8ceab" y="307.584"/>
      </g>
     </g>
     <g id="text_6">
      <!-- 5 -->
      <g transform="translate(329.003356 322.182437)scale(0.1 -0.1)">
       <defs>
        <path d="M 10.796875 72.90625 
L 49.515625 72.90625 
L 49.515625 64.59375 
L 19.828125 64.59375 
L 19.828125 46.734375 
Q 21.96875 47.46875 24.109375 47.828125 
Q 26.265625 48.1875 28.421875 48.1875 
Q 40.625 48.1875 47.75 41.5 
Q 54.890625 34.8125 54.890625 23.390625 
Q 54.890625 11.625 47.5625 5.09375 
Q 40.234375 -1.421875 26.90625 -1.421875 
Q 22.3125 -1.421875 17.546875 -0.640625 
Q 12.796875 0.140625 7.71875 1.703125 
L 7.71875 11.625 
Q 12.109375 9.234375 16.796875 8.0625 
Q 21.484375 6.890625 26.703125 6.890625 
Q 35.15625 6.890625 40.078125 11.328125 
Q 45.015625 15.765625 45.015625 23.390625 
Q 45.015625 31 40.078125 35.4375 
Q 35.15625 39.890625 26.703125 39.890625 
Q 22.75 39.890625 18.8125 39.015625 
Q 14.890625 38.140625 10.796875 36.28125 
z
" id="DejaVuSans-53"/>
       </defs>
       <use xlink:href="#DejaVuSans-53"/>
      </g>
     </g>
    </g>
    <g id="xtick_7">
     <g id="line2d_7">
      <g>
       <use style="stroke:#000000;stroke-width:0.8;" x="383.854982" xlink:href="#m99c9c8ceab" y="307.584"/>
      </g>
     </g>
     <g id="text_7">
      <!-- 6 -->
      <g transform="translate(380.673732 322.182437)scale(0.1 -0.1)">
       <defs>
        <path d="M 33.015625 40.375 
Q 26.375 40.375 22.484375 35.828125 
Q 18.609375 31.296875 18.609375 23.390625 
Q 18.609375 15.53125 22.484375 10.953125 
Q 26.375 6.390625 33.015625 6.390625 
Q 39.65625 6.390625 43.53125 10.953125 
Q 47.40625 15.53125 47.40625 23.390625 
Q 47.40625 31.296875 43.53125 35.828125 
Q 39.65625 40.375 33.015625 40.375 
z
M 52.59375 71.296875 
L 52.59375 62.3125 
Q 48.875 64.0625 45.09375 64.984375 
Q 41.3125 65.921875 37.59375 65.921875 
Q 27.828125 65.921875 22.671875 59.328125 
Q 17.53125 52.734375 16.796875 39.40625 
Q 19.671875 43.65625 24.015625 45.921875 
Q 28.375 48.1875 33.59375 48.1875 
Q 44.578125 48.1875 50.953125 41.515625 
Q 57.328125 34.859375 57.328125 23.390625 
Q 57.328125 12.15625 50.6875 5.359375 
Q 44.046875 -1.421875 33.015625 -1.421875 
Q 20.359375 -1.421875 13.671875 8.265625 
Q 6.984375 17.96875 6.984375 36.375 
Q 6.984375 53.65625 15.1875 63.9375 
Q 23.390625 74.21875 37.203125 74.21875 
Q 40.921875 74.21875 44.703125 73.484375 
Q 48.484375 72.75 52.59375 71.296875 
z
" id="DejaVuSans-54"/>
       </defs>
       <use xlink:href="#DejaVuSans-54"/>
      </g>
     </g>
    </g>
   </g>
   <g id="matplotlib.axis_2">
    <g id="ytick_1">
     <g id="line2d_8">
      <defs>
       <path d="M 0 0 
L -3.5 0 
" id="m057d91251d" style="stroke:#000000;stroke-width:0.8;"/>
      </defs>
      <g>
       <use style="stroke:#000000;stroke-width:0.8;" x="57.6" xlink:href="#m057d91251d" y="295.488"/>
      </g>
     </g>
     <g id="text_8">
      <!-- 0.0 -->
      <g transform="translate(34.696875 299.287219)scale(0.1 -0.1)">
       <defs>
        <path d="M 10.6875 12.40625 
L 21 12.40625 
L 21 0 
L 10.6875 0 
z
" id="DejaVuSans-46"/>
       </defs>
       <use xlink:href="#DejaVuSans-48"/>
       <use x="63.623047" xlink:href="#DejaVuSans-46"/>
       <use x="95.410156" xlink:href="#DejaVuSans-48"/>
      </g>
     </g>
    </g>
    <g id="ytick_2">
     <g id="line2d_9">
      <g>
       <use style="stroke:#000000;stroke-width:0.8;" x="57.6" xlink:href="#m057d91251d" y="247.095864"/>
      </g>
     </g>
     <g id="text_9">
      <!-- 0.2 -->
      <g transform="translate(34.696875 250.895083)scale(0.1 -0.1)">
       <use xlink:href="#DejaVuSans-48"/>
       <use x="63.623047" xlink:href="#DejaVuSans-46"/>
       <use x="95.410156" xlink:href="#DejaVuSans-50"/>
      </g>
     </g>
    </g>
    <g id="ytick_3">
     <g id="line2d_10">
      <g>
       <use style="stroke:#000000;stroke-width:0.8;" x="57.6" xlink:href="#m057d91251d" y="198.703728"/>
      </g>
     </g>
     <g id="text_10">
      <!-- 0.4 -->
      <g transform="translate(34.696875 202.502947)scale(0.1 -0.1)">
       <use xlink:href="#DejaVuSans-48"/>
       <use x="63.623047" xlink:href="#DejaVuSans-46"/>
       <use x="95.410156" xlink:href="#DejaVuSans-52"/>
      </g>
     </g>
    </g>
    <g id="ytick_4">
     <g id="line2d_11">
      <g>
       <use style="stroke:#000000;stroke-width:0.8;" x="57.6" xlink:href="#m057d91251d" y="150.311592"/>
      </g>
     </g>
     <g id="text_11">
      <!-- 0.6 -->
      <g transform="translate(34.696875 154.110811)scale(0.1 -0.1)">
       <use xlink:href="#DejaVuSans-48"/>
       <use x="63.623047" xlink:href="#DejaVuSans-46"/>
       <use x="95.410156" xlink:href="#DejaVuSans-54"/>
      </g>
     </g>
    </g>
    <g id="ytick_5">
     <g id="line2d_12">
      <g>
       <use style="stroke:#000000;stroke-width:0.8;" x="57.6" xlink:href="#m057d91251d" y="101.919456"/>
      </g>
     </g>
     <g id="text_12">
      <!-- 0.8 -->
      <g transform="translate(34.696875 105.718674)scale(0.1 -0.1)">
       <defs>
        <path d="M 31.78125 34.625 
Q 24.75 34.625 20.71875 30.859375 
Q 16.703125 27.09375 16.703125 20.515625 
Q 16.703125 13.921875 20.71875 10.15625 
Q 24.75 6.390625 31.78125 6.390625 
Q 38.8125 6.390625 42.859375 10.171875 
Q 46.921875 13.96875 46.921875 20.515625 
Q 46.921875 27.09375 42.890625 30.859375 
Q 38.875 34.625 31.78125 34.625 
z
M 21.921875 38.8125 
Q 15.578125 40.375 12.03125 44.71875 
Q 8.5 49.078125 8.5 55.328125 
Q 8.5 64.0625 14.71875 69.140625 
Q 20.953125 74.21875 31.78125 74.21875 
Q 42.671875 74.21875 48.875 69.140625 
Q 55.078125 64.0625 55.078125 55.328125 
Q 55.078125 49.078125 51.53125 44.71875 
Q 48 40.375 41.703125 38.8125 
Q 48.828125 37.15625 52.796875 32.3125 
Q 56.78125 27.484375 56.78125 20.515625 
Q 56.78125 9.90625 50.3125 4.234375 
Q 43.84375 -1.421875 31.78125 -1.421875 
Q 19.734375 -1.421875 13.25 4.234375 
Q 6.78125 9.90625 6.78125 20.515625 
Q 6.78125 27.484375 10.78125 32.3125 
Q 14.796875 37.15625 21.921875 38.8125 
z
M 18.3125 54.390625 
Q 18.3125 48.734375 21.84375 45.5625 
Q 25.390625 42.390625 31.78125 42.390625 
Q 38.140625 42.390625 41.71875 45.5625 
Q 45.3125 48.734375 45.3125 54.390625 
Q 45.3125 60.0625 41.71875 63.234375 
Q 38.140625 66.40625 31.78125 66.40625 
Q 25.390625 66.40625 21.84375 63.234375 
Q 18.3125 60.0625 18.3125 54.390625 
z
" id="DejaVuSans-56"/>
       </defs>
       <use xlink:href="#DejaVuSans-48"/>
       <use x="63.623047" xlink:href="#DejaVuSans-46"/>
       <use x="95.410156" xlink:href="#DejaVuSans-56"/>
      </g>
     </g>
    </g>
    <g id="ytick_6">
     <g id="line2d_13">
      <g>
       <use style="stroke:#000000;stroke-width:0.8;" x="57.6" xlink:href="#m057d91251d" y="53.52732"/>
      </g>
     </g>
     <g id="text_13">
      <!-- 1.0 -->
      <g transform="translate(34.696875 57.326538)scale(0.1 -0.1)">
       <use xlink:href="#DejaVuSans-49"/>
       <use x="63.623047" xlink:href="#DejaVuSans-46"/>
       <use x="95.410156" xlink:href="#DejaVuSans-48"/>
      </g>
     </g>
    </g>
   </g>
   <g id="line2d_14">
    <path clip-path="url(#p9679a9a8ac)" d="M 73.832727 295.488 
L 80.989441 295.398961 
L 83.591882 295.180218 
L 85.543713 294.850074 
L 87.495544 294.30705 
L 89.447375 293.475669 
L 90.748595 292.719198 
L 92.049816 291.768742 
L 93.351037 290.594749 
L 94.652257 289.166169 
L 95.953478 287.450715 
L 97.254698 285.415173 
L 98.555919 283.025781 
L 99.85714 280.248659 
L 101.15836 277.050325 
L 102.459581 273.398269 
L 103.760802 269.261614 
L 105.712633 262.08649 
L 107.664463 253.675738 
L 109.616294 243.970504 
L 111.568125 232.942538 
L 113.519956 220.602315 
L 115.471787 207.007423 
L 118.074228 187.133315 
L 121.32728 160.144954 
L 128.483993 99.701307 
L 130.435824 85.290335 
L 132.387655 72.858877 
L 133.688876 65.979959 
L 134.990097 60.442639 
L 135.640707 58.232671 
L 136.291317 56.423492 
L 136.941927 55.035228 
L 137.592538 54.086895 
L 138.243148 53.596215 
L 138.893758 53.57943 
L 139.544369 54.051109 
L 140.194979 55.023958 
L 140.845589 56.508623 
L 141.4962 58.513501 
L 142.14681 61.044552 
L 143.448031 67.695717 
L 144.749251 76.454187 
L 146.050472 87.262068 
L 147.351692 100.007106 
L 148.652913 114.519399 
L 150.604744 139.08323 
L 153.207185 175.384133 
L 157.110847 230.683375 
L 159.062678 255.119842 
L 160.363899 269.025735 
L 161.665119 280.436924 
L 162.96634 288.895755 
L 163.61695 291.891659 
L 164.267561 294.00753 
L 164.918171 295.207298 
L 165.568781 295.461402 
L 166.219392 294.747384 
L 166.870002 293.050442 
L 167.520612 290.363941 
L 168.171222 286.689865 
L 168.821833 282.039213 
L 170.123053 269.899059 
L 171.424274 254.221697 
L 172.725495 235.440753 
L 174.677326 202.769724 
L 180.532818 98.946035 
L 181.834039 80.965564 
L 183.13526 66.92649 
L 183.78587 61.637705 
L 184.43648 57.616779 
L 185.087091 54.93356 
L 185.737701 53.643643 
L 186.388311 53.787076 
L 187.038921 55.38721 
L 187.689532 58.449719 
L 188.340142 62.961817 
L 188.990752 68.891686 
L 189.641363 76.188155 
L 190.942583 94.579291 
L 192.243804 117.34312 
L 194.195635 157.26437 
L 198.099297 240.031536 
L 199.400517 262.620878 
L 200.701738 280.160192 
L 201.352348 286.637945 
L 202.002959 291.414004 
L 202.653569 294.387243 
L 203.304179 295.482976 
L 203.95479 294.655131 
L 204.6054 291.888037 
L 205.25601 287.197761 
L 205.906621 280.632938 
L 206.557231 272.275073 
L 207.858451 250.668291 
L 209.159672 223.661037 
L 211.111503 176.903509 
L 213.713944 114.339923 
L 215.015165 88.187109 
L 216.316385 68.325613 
L 216.966996 61.307788 
L 217.617606 56.463174 
L 218.268216 53.916966 
L 218.918827 53.751057 
L 219.569437 56.000982 
L 220.220047 60.653711 
L 220.870658 67.646398 
L 221.521268 76.866143 
L 222.822489 101.291085 
L 224.123709 132.083915 
L 228.677981 250.836577 
L 229.979202 275.37607 
L 230.629812 284.353636 
L 231.280423 290.801965 
L 231.931033 294.537336 
L 232.581643 295.437204 
L 233.232254 293.444965 
L 233.882864 288.573255 
L 234.533474 280.905631 
L 235.184085 270.596514 
L 236.485305 243.012786 
L 237.786526 208.358017 
L 241.690188 97.805375 
L 242.991408 71.72237 
L 243.642019 62.628299 
L 244.292629 56.563718 
L 244.943239 53.73105 
L 245.59385 54.246164 
L 246.24446 58.132758 
L 246.89507 65.319221 
L 247.54568 75.63816 
L 248.196291 88.828725 
L 249.497511 122.3478 
L 251.449342 183.064391 
L 253.401173 242.121892 
L 254.702394 272.518084 
L 255.353004 283.454993 
L 256.003615 291.02277 
L 256.654225 294.946538 
L 257.304835 295.062671 
L 257.955445 291.326878 
L 258.606056 283.81862 
L 259.256666 272.74159 
L 259.907276 258.420085 
L 261.208497 221.893095 
L 265.112159 96.123202 
L 265.762769 80.375011 
L 266.413379 67.864619 
L 267.06399 59.065592 
L 267.7146 54.327509 
L 268.36521 53.860447 
L 269.015821 57.724076 
L 269.666431 65.821937 
L 270.317041 77.901319 
L 270.967652 93.55893 
L 272.268872 133.317227 
L 275.521924 245.552325 
L 276.172534 263.337545 
L 276.823144 277.729471 
L 277.473755 288.13252 
L 278.124365 294.098941 
L 278.774975 295.349988 
L 279.425586 291.79089 
L 280.076196 283.518792 
L 280.726806 270.823079 
L 281.377417 254.177824 
L 282.678637 211.758497 
L 285.931689 95.391372 
L 286.582299 78.265063 
L 287.232909 65.217502 
L 287.88352 56.849694 
L 288.53413 53.568 
L 289.18474 55.562114 
L 289.835351 62.792056 
L 290.485961 74.985067 
L 291.136571 91.642885 
L 292.437792 135.348266 
L 295.040233 235.437772 
L 295.690844 256.41718 
L 296.341454 273.635916 
L 296.992064 286.252615 
L 297.642674 293.631291 
L 298.293285 295.375884 
L 298.943895 291.354165 
L 299.594505 281.709493 
L 300.245116 266.859459 
L 300.895726 247.481061 
L 302.196947 198.964079 
L 304.148778 120.030358 
L 305.449998 78.448297 
L 306.100608 64.406606 
L 306.751219 55.953588 
L 307.401829 53.570587 
L 308.052439 57.431381 
L 308.70305 67.387104 
L 309.35366 82.967758 
L 310.00427 103.400755 
L 311.305491 154.446315 
L 313.257322 235.7401 
L 313.907932 258.238347 
L 314.558543 276.225971 
L 315.209153 288.678965 
L 315.859763 294.865365 
L 316.510373 294.391524 
L 317.160984 287.230526 
L 317.811594 273.730604 
L 318.462204 254.602486 
L 319.763425 203.895636 
L 321.715256 119.000824 
L 322.365866 94.862757 
L 323.016477 75.320173 
L 323.667087 61.558075 
L 324.317697 54.434876 
L 324.968308 54.425287 
L 325.618918 61.584898 
L 326.269528 75.539216 
L 326.920138 95.498521 
L 328.221359 148.464083 
L 330.17319 235.64512 
L 330.8238 259.588534 
L 331.474411 278.273601 
L 332.125021 290.486603 
L 332.775631 295.407628 
L 333.426242 292.669692 
L 334.076852 282.390182 
L 334.727462 265.171821 
L 335.378073 242.072255 
L 336.679293 184.343502 
L 337.980514 123.821476 
L 338.631124 97.489863 
L 339.281734 76.203803 
L 339.932345 61.419432 
L 340.582955 54.174703 
L 341.233565 55.012191 
L 341.884176 63.933846 
L 342.534786 80.391643 
L 343.185396 103.315743 
L 344.486617 162.095873 
L 345.787837 224.515906 
L 346.438448 251.660428 
L 347.089058 273.446201 
L 347.739668 288.296542 
L 348.390279 295.108577 
L 349.040889 293.339898 
L 349.691499 283.056794 
L 350.34211 264.939542 
L 350.99272 240.243264 
L 352.293941 178.479253 
L 353.595161 115.310625 
L 354.245772 89.054087 
L 354.896382 69.090041 
L 355.546992 56.952973 
L 356.197602 53.607378 
L 356.848213 59.365721 
L 357.498823 73.854227 
L 358.149433 96.030322 
L 359.450654 156.393033 
L 360.751875 222.48612 
L 361.402485 251.309138 
L 362.053095 274.193886 
L 362.703706 289.30373 
L 363.354316 295.394944 
L 364.004926 291.924727 
L 364.655537 279.105477 
L 365.306147 257.899624 
L 366.607367 197.477423 
L 368.559198 99.571731 
L 369.209809 75.708513 
L 369.860419 59.936766 
L 370.511029 53.61509 
L 371.16164 57.330718 
L 371.81225 70.83859 
L 372.46286 93.069207 
L 373.764081 155.829222 
L 375.065302 225.048372 
L 375.715912 254.727193 
L 376.366522 277.564652 
L 377.017132 291.542993 
L 377.667743 295.392323 
L 378.318353 288.712674 
L 378.968963 272.022065 
L 379.619574 246.724604 
L 380.920794 179.619335 
L 382.222015 110.482754 
L 382.872625 82.934153 
L 383.523236 63.584902 
L 384.173846 54.238044 
L 384.824456 55.805606 
L 385.475066 68.212199 
L 386.125677 90.387526 
L 387.426897 155.379456 
L 388.728118 227.548972 
L 389.378728 257.951308 
L 390.029339 280.574317 
L 390.679949 293.235982 
L 391.330559 294.676117 
L 391.98117 284.689574 
L 392.63178 264.16093 
L 393.28239 234.995114 
L 395.884831 94.096053 
L 396.535442 70.094893 
L 397.186052 56.303266 
L 397.836662 54.14234 
L 398.487273 63.895278 
L 398.487273 63.895278 
" style="fill:none;stroke:#1f77b4;stroke-linecap:square;stroke-width:1.5;"/>
   </g>
   <g id="patch_3">
    <path d="M 57.6 307.584 
L 57.6 41.472 
" style="fill:none;stroke:#000000;stroke-linecap:square;stroke-linejoin:miter;stroke-width:0.8;"/>
   </g>
   <g id="patch_4">
    <path d="M 414.72 307.584 
L 414.72 41.472 
" style="fill:none;stroke:#000000;stroke-linecap:square;stroke-linejoin:miter;stroke-width:0.8;"/>
   </g>
   <g id="patch_5">
    <path d="M 57.6 307.584 
L 414.72 307.584 
" style="fill:none;stroke:#000000;stroke-linecap:square;stroke-linejoin:miter;stroke-width:0.8;"/>
   </g>
   <g id="patch_6">
    <path d="M 57.6 41.472 
L 414.72 41.472 
" style="fill:none;stroke:#000000;stroke-linecap:square;stroke-linejoin:miter;stroke-width:0.8;"/>
   </g>
   <g id="text_14">
    <!-- Quick graph of a function -->
    <g transform="translate(160.033125 22.034625)scale(0.12 -0.12)">
     <defs>
      <path d="M 39.40625 66.21875 
Q 28.65625 66.21875 22.328125 58.203125 
Q 16.015625 50.203125 16.015625 36.375 
Q 16.015625 22.609375 22.328125 14.59375 
Q 28.65625 6.59375 39.40625 6.59375 
Q 50.140625 6.59375 56.421875 14.59375 
Q 62.703125 22.609375 62.703125 36.375 
Q 62.703125 50.203125 56.421875 58.203125 
Q 50.140625 66.21875 39.40625 66.21875 
z
M 53.21875 1.3125 
L 66.21875 -12.890625 
L 54.296875 -12.890625 
L 43.5 -1.21875 
Q 41.890625 -1.3125 41.03125 -1.359375 
Q 40.1875 -1.421875 39.40625 -1.421875 
Q 24.03125 -1.421875 14.8125 8.859375 
Q 5.609375 19.140625 5.609375 36.375 
Q 5.609375 53.65625 14.8125 63.9375 
Q 24.03125 74.21875 39.40625 74.21875 
Q 54.734375 74.21875 63.90625 63.9375 
Q 73.09375 53.65625 73.09375 36.375 
Q 73.09375 23.6875 67.984375 14.640625 
Q 62.890625 5.609375 53.21875 1.3125 
z
" id="DejaVuSans-81"/>
      <path d="M 8.5 21.578125 
L 8.5 54.6875 
L 17.484375 54.6875 
L 17.484375 21.921875 
Q 17.484375 14.15625 20.5 10.265625 
Q 23.53125 6.390625 29.59375 6.390625 
Q 36.859375 6.390625 41.078125 11.03125 
Q 45.3125 15.671875 45.3125 23.6875 
L 45.3125 54.6875 
L 54.296875 54.6875 
L 54.296875 0 
L 45.3125 0 
L 45.3125 8.40625 
Q 42.046875 3.421875 37.71875 1 
Q 33.40625 -1.421875 27.6875 -1.421875 
Q 18.265625 -1.421875 13.375 4.4375 
Q 8.5 10.296875 8.5 21.578125 
z
M 31.109375 56 
z
" id="DejaVuSans-117"/>
      <path d="M 9.421875 54.6875 
L 18.40625 54.6875 
L 18.40625 0 
L 9.421875 0 
z
M 9.421875 75.984375 
L 18.40625 75.984375 
L 18.40625 64.59375 
L 9.421875 64.59375 
z
" id="DejaVuSans-105"/>
      <path d="M 48.78125 52.59375 
L 48.78125 44.1875 
Q 44.96875 46.296875 41.140625 47.34375 
Q 37.3125 48.390625 33.40625 48.390625 
Q 24.65625 48.390625 19.8125 42.84375 
Q 14.984375 37.3125 14.984375 27.296875 
Q 14.984375 17.28125 19.8125 11.734375 
Q 24.65625 6.203125 33.40625 6.203125 
Q 37.3125 6.203125 41.140625 7.25 
Q 44.96875 8.296875 48.78125 10.40625 
L 48.78125 2.09375 
Q 45.015625 0.34375 40.984375 -0.53125 
Q 36.96875 -1.421875 32.421875 -1.421875 
Q 20.0625 -1.421875 12.78125 6.34375 
Q 5.515625 14.109375 5.515625 27.296875 
Q 5.515625 40.671875 12.859375 48.328125 
Q 20.21875 56 33.015625 56 
Q 37.15625 56 41.109375 55.140625 
Q 45.0625 54.296875 48.78125 52.59375 
z
" id="DejaVuSans-99"/>
      <path d="M 9.078125 75.984375 
L 18.109375 75.984375 
L 18.109375 31.109375 
L 44.921875 54.6875 
L 56.390625 54.6875 
L 27.390625 29.109375 
L 57.625 0 
L 45.90625 0 
L 18.109375 26.703125 
L 18.109375 0 
L 9.078125 0 
z
" id="DejaVuSans-107"/>
      <path id="DejaVuSans-32"/>
      <path d="M 45.40625 27.984375 
Q 45.40625 37.75 41.375 43.109375 
Q 37.359375 48.484375 30.078125 48.484375 
Q 22.859375 48.484375 18.828125 43.109375 
Q 14.796875 37.75 14.796875 27.984375 
Q 14.796875 18.265625 18.828125 12.890625 
Q 22.859375 7.515625 30.078125 7.515625 
Q 37.359375 7.515625 41.375 12.890625 
Q 45.40625 18.265625 45.40625 27.984375 
z
M 54.390625 6.78125 
Q 54.390625 -7.171875 48.1875 -13.984375 
Q 42 -20.796875 29.203125 -20.796875 
Q 24.46875 -20.796875 20.265625 -20.09375 
Q 16.0625 -19.390625 12.109375 -17.921875 
L 12.109375 -9.1875 
Q 16.0625 -11.328125 19.921875 -12.34375 
Q 23.78125 -13.375 27.78125 -13.375 
Q 36.625 -13.375 41.015625 -8.765625 
Q 45.40625 -4.15625 45.40625 5.171875 
L 45.40625 9.625 
Q 42.625 4.78125 38.28125 2.390625 
Q 33.9375 0 27.875 0 
Q 17.828125 0 11.671875 7.65625 
Q 5.515625 15.328125 5.515625 27.984375 
Q 5.515625 40.671875 11.671875 48.328125 
Q 17.828125 56 27.875 56 
Q 33.9375 56 38.28125 53.609375 
Q 42.625 51.21875 45.40625 46.390625 
L 45.40625 54.6875 
L 54.390625 54.6875 
z
" id="DejaVuSans-103"/>
      <path d="M 41.109375 46.296875 
Q 39.59375 47.171875 37.8125 47.578125 
Q 36.03125 48 33.890625 48 
Q 26.265625 48 22.1875 43.046875 
Q 18.109375 38.09375 18.109375 28.8125 
L 18.109375 0 
L 9.078125 0 
L 9.078125 54.6875 
L 18.109375 54.6875 
L 18.109375 46.1875 
Q 20.953125 51.171875 25.484375 53.578125 
Q 30.03125 56 36.53125 56 
Q 37.453125 56 38.578125 55.875 
Q 39.703125 55.765625 41.0625 55.515625 
z
" id="DejaVuSans-114"/>
      <path d="M 34.28125 27.484375 
Q 23.390625 27.484375 19.1875 25 
Q 14.984375 22.515625 14.984375 16.5 
Q 14.984375 11.71875 18.140625 8.90625 
Q 21.296875 6.109375 26.703125 6.109375 
Q 34.1875 6.109375 38.703125 11.40625 
Q 43.21875 16.703125 43.21875 25.484375 
L 43.21875 27.484375 
z
M 52.203125 31.203125 
L 52.203125 0 
L 43.21875 0 
L 43.21875 8.296875 
Q 40.140625 3.328125 35.546875 0.953125 
Q 30.953125 -1.421875 24.3125 -1.421875 
Q 15.921875 -1.421875 10.953125 3.296875 
Q 6 8.015625 6 15.921875 
Q 6 25.140625 12.171875 29.828125 
Q 18.359375 34.515625 30.609375 34.515625 
L 43.21875 34.515625 
L 43.21875 35.40625 
Q 43.21875 41.609375 39.140625 45 
Q 35.0625 48.390625 27.6875 48.390625 
Q 23 48.390625 18.546875 47.265625 
Q 14.109375 46.140625 10.015625 43.890625 
L 10.015625 52.203125 
Q 14.9375 54.109375 19.578125 55.046875 
Q 24.21875 56 28.609375 56 
Q 40.484375 56 46.34375 49.84375 
Q 52.203125 43.703125 52.203125 31.203125 
z
" id="DejaVuSans-97"/>
      <path d="M 18.109375 8.203125 
L 18.109375 -20.796875 
L 9.078125 -20.796875 
L 9.078125 54.6875 
L 18.109375 54.6875 
L 18.109375 46.390625 
Q 20.953125 51.265625 25.265625 53.625 
Q 29.59375 56 35.59375 56 
Q 45.5625 56 51.78125 48.09375 
Q 58.015625 40.1875 58.015625 27.296875 
Q 58.015625 14.40625 51.78125 6.484375 
Q 45.5625 -1.421875 35.59375 -1.421875 
Q 29.59375 -1.421875 25.265625 0.953125 
Q 20.953125 3.328125 18.109375 8.203125 
z
M 48.6875 27.296875 
Q 48.6875 37.203125 44.609375 42.84375 
Q 40.53125 48.484375 33.40625 48.484375 
Q 26.265625 48.484375 22.1875 42.84375 
Q 18.109375 37.203125 18.109375 27.296875 
Q 18.109375 17.390625 22.1875 11.75 
Q 26.265625 6.109375 33.40625 6.109375 
Q 40.53125 6.109375 44.609375 11.75 
Q 48.6875 17.390625 48.6875 27.296875 
z
" id="DejaVuSans-112"/>
      <path d="M 54.890625 33.015625 
L 54.890625 0 
L 45.90625 0 
L 45.90625 32.71875 
Q 45.90625 40.484375 42.875 44.328125 
Q 39.84375 48.1875 33.796875 48.1875 
Q 26.515625 48.1875 22.3125 43.546875 
Q 18.109375 38.921875 18.109375 30.90625 
L 18.109375 0 
L 9.078125 0 
L 9.078125 75.984375 
L 18.109375 75.984375 
L 18.109375 46.1875 
Q 21.34375 51.125 25.703125 53.5625 
Q 30.078125 56 35.796875 56 
Q 45.21875 56 50.046875 50.171875 
Q 54.890625 44.34375 54.890625 33.015625 
z
" id="DejaVuSans-104"/>
      <path d="M 30.609375 48.390625 
Q 23.390625 48.390625 19.1875 42.75 
Q 14.984375 37.109375 14.984375 27.296875 
Q 14.984375 17.484375 19.15625 11.84375 
Q 23.34375 6.203125 30.609375 6.203125 
Q 37.796875 6.203125 41.984375 11.859375 
Q 46.1875 17.53125 46.1875 27.296875 
Q 46.1875 37.015625 41.984375 42.703125 
Q 37.796875 48.390625 30.609375 48.390625 
z
M 30.609375 56 
Q 42.328125 56 49.015625 48.375 
Q 55.71875 40.765625 55.71875 27.296875 
Q 55.71875 13.875 49.015625 6.21875 
Q 42.328125 -1.421875 30.609375 -1.421875 
Q 18.84375 -1.421875 12.171875 6.21875 
Q 5.515625 13.875 5.515625 27.296875 
Q 5.515625 40.765625 12.171875 48.375 
Q 18.84375 56 30.609375 56 
z
" id="DejaVuSans-111"/>
      <path d="M 37.109375 75.984375 
L 37.109375 68.5 
L 28.515625 68.5 
Q 23.6875 68.5 21.796875 66.546875 
Q 19.921875 64.59375 19.921875 59.515625 
L 19.921875 54.6875 
L 34.71875 54.6875 
L 34.71875 47.703125 
L 19.921875 47.703125 
L 19.921875 0 
L 10.890625 0 
L 10.890625 47.703125 
L 2.296875 47.703125 
L 2.296875 54.6875 
L 10.890625 54.6875 
L 10.890625 58.5 
Q 10.890625 67.625 15.140625 71.796875 
Q 19.390625 75.984375 28.609375 75.984375 
z
" id="DejaVuSans-102"/>
      <path d="M 54.890625 33.015625 
L 54.890625 0 
L 45.90625 0 
L 45.90625 32.71875 
Q 45.90625 40.484375 42.875 44.328125 
Q 39.84375 48.1875 33.796875 48.1875 
Q 26.515625 48.1875 22.3125 43.546875 
Q 18.109375 38.921875 18.109375 30.90625 
L 18.109375 0 
L 9.078125 0 
L 9.078125 54.6875 
L 18.109375 54.6875 
L 18.109375 46.1875 
Q 21.34375 51.125 25.703125 53.5625 
Q 30.078125 56 35.796875 56 
Q 45.21875 56 50.046875 50.171875 
Q 54.890625 44.34375 54.890625 33.015625 
z
" id="DejaVuSans-110"/>
      <path d="M 18.3125 70.21875 
L 18.3125 54.6875 
L 36.8125 54.6875 
L 36.8125 47.703125 
L 18.3125 47.703125 
L 18.3125 18.015625 
Q 18.3125 11.328125 20.140625 9.421875 
Q 21.96875 7.515625 27.59375 7.515625 
L 36.8125 7.515625 
L 36.8125 0 
L 27.59375 0 
Q 17.1875 0 13.234375 3.875 
Q 9.28125 7.765625 9.28125 18.015625 
L 9.28125 47.703125 
L 2.6875 47.703125 
L 2.6875 54.6875 
L 9.28125 54.6875 
L 9.28125 70.21875 
z
" id="DejaVuSans-116"/>
     </defs>
     <use xlink:href="#DejaVuSans-81"/>
     <use x="78.710938" xlink:href="#DejaVuSans-117"/>
     <use x="142.089844" xlink:href="#DejaVuSans-105"/>
     <use x="169.873047" xlink:href="#DejaVuSans-99"/>
     <use x="224.853516" xlink:href="#DejaVuSans-107"/>
     <use x="282.763672" xlink:href="#DejaVuSans-32"/>
     <use x="314.550781" xlink:href="#DejaVuSans-103"/>
     <use x="378.027344" xlink:href="#DejaVuSans-114"/>
     <use x="419.140625" xlink:href="#DejaVuSans-97"/>
     <use x="480.419922" xlink:href="#DejaVuSans-112"/>
     <use x="543.896484" xlink:href="#DejaVuSans-104"/>
     <use x="607.275391" xlink:href="#DejaVuSans-32"/>
     <use x="639.0625" xlink:href="#DejaVuSans-111"/>
     <use x="700.244141" xlink:href="#DejaVuSans-102"/>
     <use x="735.449219" xlink:href="#DejaVuSans-32"/>
     <use x="767.236328" xlink:href="#DejaVuSans-97"/>
     <use x="828.515625" xlink:href="#DejaVuSans-32"/>
     <use x="860.302734" xlink:href="#DejaVuSans-102"/>
     <use x="895.507812" xlink:href="#DejaVuSans-117"/>
     <use x="958.886719" xlink:href="#DejaVuSans-110"/>
     <use x="1022.265625" xlink:href="#DejaVuSans-99"/>
     <use x="1077.246094" xlink:href="#DejaVuSans-116"/>
     <use x="1116.455078" xlink:href="#DejaVuSans-105"/>
     <use x="1144.238281" xlink:href="#DejaVuSans-111"/>
     <use x="1205.419922" xlink:href="#DejaVuSans-110"/>
    </g>
    <!-- $f(x)=\sin²{x}$ -->
    <g transform="translate(203.88 35.472)scale(0.12 -0.12)">
     <defs>
      <path d="M 47.796875 75.984375 
L 46.390625 68.5 
L 37.796875 68.5 
Q 32.90625 68.5 30.6875 66.578125 
Q 28.46875 64.65625 27.390625 59.515625 
L 26.421875 54.6875 
L 41.21875 54.6875 
L 39.890625 47.703125 
L 25.09375 47.703125 
L 15.828125 0 
L 6.78125 0 
L 16.109375 47.703125 
L 7.515625 47.703125 
L 8.796875 54.6875 
L 17.390625 54.6875 
L 18.109375 58.5 
Q 19.96875 68.171875 24.625 72.078125 
Q 29.296875 75.984375 39.3125 75.984375 
z
" id="DejaVuSans-Oblique-102"/>
      <path d="M 31 75.875 
Q 24.46875 64.65625 21.28125 53.65625 
Q 18.109375 42.671875 18.109375 31.390625 
Q 18.109375 20.125 21.3125 9.0625 
Q 24.515625 -2 31 -13.1875 
L 23.1875 -13.1875 
Q 15.875 -1.703125 12.234375 9.375 
Q 8.59375 20.453125 8.59375 31.390625 
Q 8.59375 42.28125 12.203125 53.3125 
Q 15.828125 64.359375 23.1875 75.875 
z
" id="DejaVuSans-40"/>
      <path d="M 60.015625 54.6875 
L 34.90625 27.875 
L 50.296875 0 
L 39.984375 0 
L 28.421875 21.6875 
L 8.296875 0 
L -2.59375 0 
L 24.3125 28.8125 
L 10.015625 54.6875 
L 20.3125 54.6875 
L 30.8125 34.90625 
L 49.125 54.6875 
z
" id="DejaVuSans-Oblique-120"/>
      <path d="M 8.015625 75.875 
L 15.828125 75.875 
Q 23.140625 64.359375 26.78125 53.3125 
Q 30.421875 42.28125 30.421875 31.390625 
Q 30.421875 20.453125 26.78125 9.375 
Q 23.140625 -1.703125 15.828125 -13.1875 
L 8.015625 -13.1875 
Q 14.5 -2 17.703125 9.0625 
Q 20.90625 20.125 20.90625 31.390625 
Q 20.90625 42.671875 17.703125 53.65625 
Q 14.5 64.65625 8.015625 75.875 
z
" id="DejaVuSans-41"/>
      <path d="M 10.59375 45.40625 
L 73.1875 45.40625 
L 73.1875 37.203125 
L 10.59375 37.203125 
z
M 10.59375 25.484375 
L 73.1875 25.484375 
L 73.1875 17.1875 
L 10.59375 17.1875 
z
" id="DejaVuSans-61"/>
      <path d="M 44.28125 53.078125 
L 44.28125 44.578125 
Q 40.484375 46.53125 36.375 47.5 
Q 32.28125 48.484375 27.875 48.484375 
Q 21.1875 48.484375 17.84375 46.4375 
Q 14.5 44.390625 14.5 40.28125 
Q 14.5 37.15625 16.890625 35.375 
Q 19.28125 33.59375 26.515625 31.984375 
L 29.59375 31.296875 
Q 39.15625 29.25 43.1875 25.515625 
Q 47.21875 21.78125 47.21875 15.09375 
Q 47.21875 7.46875 41.1875 3.015625 
Q 35.15625 -1.421875 24.609375 -1.421875 
Q 20.21875 -1.421875 15.453125 -0.5625 
Q 10.6875 0.296875 5.421875 2 
L 5.421875 11.28125 
Q 10.40625 8.6875 15.234375 7.390625 
Q 20.0625 6.109375 24.8125 6.109375 
Q 31.15625 6.109375 34.5625 8.28125 
Q 37.984375 10.453125 37.984375 14.40625 
Q 37.984375 18.0625 35.515625 20.015625 
Q 33.0625 21.96875 24.703125 23.78125 
L 21.578125 24.515625 
Q 13.234375 26.265625 9.515625 29.90625 
Q 5.8125 33.546875 5.8125 39.890625 
Q 5.8125 47.609375 11.28125 51.796875 
Q 16.75 56 26.8125 56 
Q 31.78125 56 36.171875 55.265625 
Q 40.578125 54.546875 44.28125 53.078125 
z
" id="DejaVuSans-115"/>
      <path d="M 13.09375 38.1875 
L 33.796875 38.1875 
L 33.796875 32.625 
L 4.59375 32.625 
L 4.59375 37.984375 
Q 6.25 39.5 9.328125 42.234375 
Q 26.125 57.125 26.125 61.71875 
Q 26.125 64.9375 23.578125 66.90625 
Q 21.046875 68.890625 16.890625 68.890625 
Q 14.359375 68.890625 11.375 68.03125 
Q 8.40625 67.1875 4.890625 65.484375 
L 4.890625 71.484375 
Q 8.640625 72.859375 11.890625 73.53125 
Q 15.140625 74.21875 17.921875 74.21875 
Q 25 74.21875 29.25 71 
Q 33.5 67.78125 33.5 62.5 
Q 33.5 55.71875 17.328125 41.84375 
Q 14.59375 39.5 13.09375 38.1875 
z
" id="DejaVuSans-178"/>
     </defs>
     <use transform="translate(0 0.015625)" xlink:href="#DejaVuSans-Oblique-102"/>
     <use transform="translate(35.205078 0.015625)" xlink:href="#DejaVuSans-40"/>
     <use transform="translate(74.21875 0.015625)" xlink:href="#DejaVuSans-Oblique-120"/>
     <use transform="translate(133.398438 0.015625)" xlink:href="#DejaVuSans-41"/>
     <use transform="translate(191.894531 0.015625)" xlink:href="#DejaVuSans-61"/>
     <use transform="translate(295.166016 0.015625)" xlink:href="#DejaVuSans-115"/>
     <use transform="translate(347.265625 0.015625)" xlink:href="#DejaVuSans-105"/>
     <use transform="translate(375.048828 0.015625)" xlink:href="#DejaVuSans-110"/>
     <use transform="translate(438.427734 0.015625)" xlink:href="#DejaVuSans-178"/>
     <use transform="translate(478.515625 0.015625)" xlink:href="#DejaVuSans-Oblique-120"/>
    </g>
   </g>
  </g>
 </g>
 <defs>
  <clipPath id="p9679a9a8ac">
   <rect height="266.112" width="357.12" x="57.6" y="41.472"/>
  </clipPath>
 </defs>
</svg>
