<?xml version="1.0" encoding="utf-8" standalone="no"?>
<!DOCTYPE svg PUBLIC "-//W3C//DTD SVG 1.1//EN"
  "http://www.w3.org/Graphics/SVG/1.1/DTD/svg11.dtd">
<!-- Created with matplotlib (https://matplotlib.org/) -->
<svg height="345.6pt" version="1.1" viewBox="0 0 460.8 345.6" width="460.8pt" xmlns="http://www.w3.org/2000/svg" xmlns:xlink="http://www.w3.org/1999/xlink">
 
 <defs>
  <style type="text/css">*{stroke-linecap:butt;stroke-linejoin:round;}</style>
 </defs>
 <g id="figure_1">
  <g id="patch_1">
   <path d="M 0 345.6 
L 460.8 345.6 
L 460.8 0 
L 0 0 
z
" style="fill:#ffffff;"/>
  </g>
  <g id="axes_1">
   <g id="patch_2">
    <path d="M 57.6 307.584 
L 414.72 307.584 
L 414.72 41.472 
L 57.6 41.472 
z
" style="fill:#ffffff;"/>
   </g>
   <g id="matplotlib.axis_1">
    <g id="xtick_1">
     <g id="line2d_1">
      <defs>
       <path d="M 0 0 
L 0 3.5 
" id="mb9e6b8c708" style="stroke:#000000;stroke-width:0.8;"/>
      </defs>
      <g>
       <use style="stroke:#000000;stroke-width:0.8;" x="73.832727" xlink:href="#mb9e6b8c708" y="307.584"/>
      </g>
     </g>
     <g id="text_1">
      <!-- 0 -->
      <g transform="translate(70.651477 322.182437)scale(0.1 -0.1)">
       <defs>
        <path d="M 31.78125 66.40625 
Q 24.171875 66.40625 20.328125 58.90625 
Q 16.5 51.421875 16.5 36.375 
Q 16.5 21.390625 20.328125 13.890625 
Q 24.171875 6.390625 31.78125 6.390625 
Q 39.453125 6.390625 43.28125 13.890625 
Q 47.125 21.390625 47.125 36.375 
Q 47.125 51.421875 43.28125 58.90625 
Q 39.453125 66.40625 31.78125 66.40625 
z
M 31.78125 74.21875 
Q 44.046875 74.21875 50.515625 64.515625 
Q 56.984375 54.828125 56.984375 36.375 
Q 56.984375 17.96875 50.515625 8.265625 
Q 44.046875 -1.421875 31.78125 -1.421875 
Q 19.53125 -1.421875 13.0625 8.265625 
Q 6.59375 17.96875 6.59375 36.375 
Q 6.59375 54.828125 13.0625 64.515625 
Q 19.53125 74.21875 31.78125 74.21875 
z
" id="DejaVuSans-48"/>
       </defs>
       <use xlink:href="#DejaVuSans-48"/>
      </g>
     </g>
    </g>
    <g id="xtick_2">
     <g id="line2d_2">
      <g>
       <use style="stroke:#000000;stroke-width:0.8;" x="128.122785" xlink:href="#mb9e6b8c708" y="307.584"/>
      </g>
     </g>
     <g id="text_2">
      <!-- 50 -->
      <g transform="translate(121.760285 322.182437)scale(0.1 -0.1)">
       <defs>
        <path d="M 10.796875 72.90625 
L 49.515625 72.90625 
L 49.515625 64.59375 
L 19.828125 64.59375 
L 19.828125 46.734375 
Q 21.96875 47.46875 24.109375 47.828125 
Q 26.265625 48.1875 28.421875 48.1875 
Q 40.625 48.1875 47.75 41.5 
Q 54.890625 34.8125 54.890625 23.390625 
Q 54.890625 11.625 47.5625 5.09375 
Q 40.234375 -1.421875 26.90625 -1.421875 
Q 22.3125 -1.421875 17.546875 -0.640625 
Q 12.796875 0.140625 7.71875 1.703125 
L 7.71875 11.625 
Q 12.109375 9.234375 16.796875 8.0625 
Q 21.484375 6.890625 26.703125 6.890625 
Q 35.15625 6.890625 40.078125 11.328125 
Q 45.015625 15.765625 45.015625 23.390625 
Q 45.015625 31 40.078125 35.4375 
Q 35.15625 39.890625 26.703125 39.890625 
Q 22.75 39.890625 18.8125 39.015625 
Q 14.890625 38.140625 10.796875 36.28125 
z
" id="DejaVuSans-53"/>
       </defs>
       <use xlink:href="#DejaVuSans-53"/>
       <use x="63.623047" xlink:href="#DejaVuSans-48"/>
      </g>
     </g>
    </g>
    <g id="xtick_3">
     <g id="line2d_3">
      <g>
       <use style="stroke:#000000;stroke-width:0.8;" x="182.412843" xlink:href="#mb9e6b8c708" y="307.584"/>
      </g>
     </g>
     <g id="text_3">
      <!-- 100 -->
      <g transform="translate(172.869093 322.182437)scale(0.1 -0.1)">
       <defs>
        <path d="M 12.40625 8.296875 
L 28.515625 8.296875 
L 28.515625 63.921875 
L 10.984375 60.40625 
L 10.984375 69.390625 
L 28.421875 72.90625 
L 38.28125 72.90625 
L 38.28125 8.296875 
L 54.390625 8.296875 
L 54.390625 0 
L 12.40625 0 
z
" id="DejaVuSans-49"/>
       </defs>
       <use xlink:href="#DejaVuSans-49"/>
       <use x="63.623047" xlink:href="#DejaVuSans-48"/>
       <use x="127.246094" xlink:href="#DejaVuSans-48"/>
      </g>
     </g>
    </g>
    <g id="xtick_4">
     <g id="line2d_4">
      <g>
       <use style="stroke:#000000;stroke-width:0.8;" x="236.702901" xlink:href="#mb9e6b8c708" y="307.584"/>
      </g>
     </g>
     <g id="text_4">
      <!-- 150 -->
      <g transform="translate(227.159151 322.182437)scale(0.1 -0.1)">
       <use xlink:href="#DejaVuSans-49"/>
       <use x="63.623047" xlink:href="#DejaVuSans-53"/>
       <use x="127.246094" xlink:href="#DejaVuSans-48"/>
      </g>
     </g>
    </g>
    <g id="xtick_5">
     <g id="line2d_5">
      <g>
       <use style="stroke:#000000;stroke-width:0.8;" x="290.992958" xlink:href="#mb9e6b8c708" y="307.584"/>
      </g>
     </g>
     <g id="text_5">
      <!-- 200 -->
      <g transform="translate(281.449208 322.182437)scale(0.1 -0.1)">
       <defs>
        <path d="M 19.1875 8.296875 
L 53.609375 8.296875 
L 53.609375 0 
L 7.328125 0 
L 7.328125 8.296875 
Q 12.9375 14.109375 22.625 23.890625 
Q 32.328125 33.6875 34.8125 36.53125 
Q 39.546875 41.84375 41.421875 45.53125 
Q 43.3125 49.21875 43.3125 52.78125 
Q 43.3125 58.59375 39.234375 62.25 
Q 35.15625 65.921875 28.609375 65.921875 
Q 23.96875 65.921875 18.8125 64.3125 
Q 13.671875 62.703125 7.8125 59.421875 
L 7.8125 69.390625 
Q 13.765625 71.78125 18.9375 73 
Q 24.125 74.21875 28.421875 74.21875 
Q 39.75 74.21875 46.484375 68.546875 
Q 53.21875 62.890625 53.21875 53.421875 
Q 53.21875 48.921875 51.53125 44.890625 
Q 49.859375 40.875 45.40625 35.40625 
Q 44.1875 33.984375 37.640625 27.21875 
Q 31.109375 20.453125 19.1875 8.296875 
z
" id="DejaVuSans-50"/>
       </defs>
       <use xlink:href="#DejaVuSans-50"/>
       <use x="63.623047" xlink:href="#DejaVuSans-48"/>
       <use x="127.246094" xlink:href="#DejaVuSans-48"/>
      </g>
     </g>
    </g>
    <g id="xtick_6">
     <g id="line2d_6">
      <g>
       <use style="stroke:#000000;stroke-width:0.8;" x="345.283016" xlink:href="#mb9e6b8c708" y="307.584"/>
      </g>
     </g>
     <g id="text_6">
      <!-- 250 -->
      <g transform="translate(335.739266 322.182437)scale(0.1 -0.1)">
       <use xlink:href="#DejaVuSans-50"/>
       <use x="63.623047" xlink:href="#DejaVuSans-53"/>
       <use x="127.246094" xlink:href="#DejaVuSans-48"/>
      </g>
     </g>
    </g>
    <g id="xtick_7">
     <g id="line2d_7">
      <g>
       <use style="stroke:#000000;stroke-width:0.8;" x="399.573074" xlink:href="#mb9e6b8c708" y="307.584"/>
      </g>
     </g>
     <g id="text_7">
      <!-- 300 -->
      <g transform="translate(390.029324 322.182437)scale(0.1 -0.1)">
       <defs>
        <path d="M 40.578125 39.3125 
Q 47.65625 37.796875 51.625 33 
Q 55.609375 28.21875 55.609375 21.1875 
Q 55.609375 10.40625 48.1875 4.484375 
Q 40.765625 -1.421875 27.09375 -1.421875 
Q 22.515625 -1.421875 17.65625 -0.515625 
Q 12.796875 0.390625 7.625 2.203125 
L 7.625 11.71875 
Q 11.71875 9.328125 16.59375 8.109375 
Q 21.484375 6.890625 26.8125 6.890625 
Q 36.078125 6.890625 40.9375 10.546875 
Q 45.796875 14.203125 45.796875 21.1875 
Q 45.796875 27.640625 41.28125 31.265625 
Q 36.765625 34.90625 28.71875 34.90625 
L 20.21875 34.90625 
L 20.21875 43.015625 
L 29.109375 43.015625 
Q 36.375 43.015625 40.234375 45.921875 
Q 44.09375 48.828125 44.09375 54.296875 
Q 44.09375 59.90625 40.109375 62.90625 
Q 36.140625 65.921875 28.71875 65.921875 
Q 24.65625 65.921875 20.015625 65.03125 
Q 15.375 64.15625 9.8125 62.3125 
L 9.8125 71.09375 
Q 15.4375 72.65625 20.34375 73.4375 
Q 25.25 74.21875 29.59375 74.21875 
Q 40.828125 74.21875 47.359375 69.109375 
Q 53.90625 64.015625 53.90625 55.328125 
Q 53.90625 49.265625 50.4375 45.09375 
Q 46.96875 40.921875 40.578125 39.3125 
z
" id="DejaVuSans-51"/>
       </defs>
       <use xlink:href="#DejaVuSans-51"/>
       <use x="63.623047" xlink:href="#DejaVuSans-48"/>
       <use x="127.246094" xlink:href="#DejaVuSans-48"/>
      </g>
     </g>
    </g>
   </g>
   <g id="matplotlib.axis_2">
    <g id="ytick_1">
     <g id="line2d_8">
      <defs>
       <path d="M 0 0 
L -3.5 0 
" id="mb85e9f14b6" style="stroke:#000000;stroke-width:0.8;"/>
      </defs>
      <g>
       <use style="stroke:#000000;stroke-width:0.8;" x="57.6" xlink:href="#mb85e9f14b6" y="295.488"/>
      </g>
     </g>
     <g id="text_8">
      <!-- 0 -->
      <g transform="translate(44.2375 299.287219)scale(0.1 -0.1)">
       <use xlink:href="#DejaVuSans-48"/>
      </g>
     </g>
    </g>
    <g id="ytick_2">
     <g id="line2d_9">
      <g>
       <use style="stroke:#000000;stroke-width:0.8;" x="57.6" xlink:href="#mb85e9f14b6" y="257.688"/>
      </g>
     </g>
     <g id="text_9">
      <!-- 20 -->
      <g transform="translate(37.875 261.487219)scale(0.1 -0.1)">
       <use xlink:href="#DejaVuSans-50"/>
       <use x="63.623047" xlink:href="#DejaVuSans-48"/>
      </g>
     </g>
    </g>
    <g id="ytick_3">
     <g id="line2d_10">
      <g>
       <use style="stroke:#000000;stroke-width:0.8;" x="57.6" xlink:href="#mb85e9f14b6" y="219.888"/>
      </g>
     </g>
     <g id="text_10">
      <!-- 40 -->
      <g transform="translate(37.875 223.687219)scale(0.1 -0.1)">
       <defs>
        <path d="M 37.796875 64.3125 
L 12.890625 25.390625 
L 37.796875 25.390625 
z
M 35.203125 72.90625 
L 47.609375 72.90625 
L 47.609375 25.390625 
L 58.015625 25.390625 
L 58.015625 17.1875 
L 47.609375 17.1875 
L 47.609375 0 
L 37.796875 0 
L 37.796875 17.1875 
L 4.890625 17.1875 
L 4.890625 26.703125 
z
" id="DejaVuSans-52"/>
       </defs>
       <use xlink:href="#DejaVuSans-52"/>
       <use x="63.623047" xlink:href="#DejaVuSans-48"/>
      </g>
     </g>
    </g>
    <g id="ytick_4">
     <g id="line2d_11">
      <g>
       <use style="stroke:#000000;stroke-width:0.8;" x="57.6" xlink:href="#mb85e9f14b6" y="182.088"/>
      </g>
     </g>
     <g id="text_11">
      <!-- 60 -->
      <g transform="translate(37.875 185.887219)scale(0.1 -0.1)">
       <defs>
        <path d="M 33.015625 40.375 
Q 26.375 40.375 22.484375 35.828125 
Q 18.609375 31.296875 18.609375 23.390625 
Q 18.609375 15.53125 22.484375 10.953125 
Q 26.375 6.390625 33.015625 6.390625 
Q 39.65625 6.390625 43.53125 10.953125 
Q 47.40625 15.53125 47.40625 23.390625 
Q 47.40625 31.296875 43.53125 35.828125 
Q 39.65625 40.375 33.015625 40.375 
z
M 52.59375 71.296875 
L 52.59375 62.3125 
Q 48.875 64.0625 45.09375 64.984375 
Q 41.3125 65.921875 37.59375 65.921875 
Q 27.828125 65.921875 22.671875 59.328125 
Q 17.53125 52.734375 16.796875 39.40625 
Q 19.671875 43.65625 24.015625 45.921875 
Q 28.375 48.1875 33.59375 48.1875 
Q 44.578125 48.1875 50.953125 41.515625 
Q 57.328125 34.859375 57.328125 23.390625 
Q 57.328125 12.15625 50.6875 5.359375 
Q 44.046875 -1.421875 33.015625 -1.421875 
Q 20.359375 -1.421875 13.671875 8.265625 
Q 6.984375 17.96875 6.984375 36.375 
Q 6.984375 53.65625 15.1875 63.9375 
Q 23.390625 74.21875 37.203125 74.21875 
Q 40.921875 74.21875 44.703125 73.484375 
Q 48.484375 72.75 52.59375 71.296875 
z
" id="DejaVuSans-54"/>
       </defs>
       <use xlink:href="#DejaVuSans-54"/>
       <use x="63.623047" xlink:href="#DejaVuSans-48"/>
      </g>
     </g>
    </g>
    <g id="ytick_5">
     <g id="line2d_12">
      <g>
       <use style="stroke:#000000;stroke-width:0.8;" x="57.6" xlink:href="#mb85e9f14b6" y="144.288"/>
      </g>
     </g>
     <g id="text_12">
      <!-- 80 -->
      <g transform="translate(37.875 148.087219)scale(0.1 -0.1)">
       <defs>
        <path d="M 31.78125 34.625 
Q 24.75 34.625 20.71875 30.859375 
Q 16.703125 27.09375 16.703125 20.515625 
Q 16.703125 13.921875 20.71875 10.15625 
Q 24.75 6.390625 31.78125 6.390625 
Q 38.8125 6.390625 42.859375 10.171875 
Q 46.921875 13.96875 46.921875 20.515625 
Q 46.921875 27.09375 42.890625 30.859375 
Q 38.875 34.625 31.78125 34.625 
z
M 21.921875 38.8125 
Q 15.578125 40.375 12.03125 44.71875 
Q 8.5 49.078125 8.5 55.328125 
Q 8.5 64.0625 14.71875 69.140625 
Q 20.953125 74.21875 31.78125 74.21875 
Q 42.671875 74.21875 48.875 69.140625 
Q 55.078125 64.0625 55.078125 55.328125 
Q 55.078125 49.078125 51.53125 44.71875 
Q 48 40.375 41.703125 38.8125 
Q 48.828125 37.15625 52.796875 32.3125 
Q 56.78125 27.484375 56.78125 20.515625 
Q 56.78125 9.90625 50.3125 4.234375 
Q 43.84375 -1.421875 31.78125 -1.421875 
Q 19.734375 -1.421875 13.25 4.234375 
Q 6.78125 9.90625 6.78125 20.515625 
Q 6.78125 27.484375 10.78125 32.3125 
Q 14.796875 37.15625 21.921875 38.8125 
z
M 18.3125 54.390625 
Q 18.3125 48.734375 21.84375 45.5625 
Q 25.390625 42.390625 31.78125 42.390625 
Q 38.140625 42.390625 41.71875 45.5625 
Q 45.3125 48.734375 45.3125 54.390625 
Q 45.3125 60.0625 41.71875 63.234375 
Q 38.140625 66.40625 31.78125 66.40625 
Q 25.390625 66.40625 21.84375 63.234375 
Q 18.3125 60.0625 18.3125 54.390625 
z
" id="DejaVuSans-56"/>
       </defs>
       <use xlink:href="#DejaVuSans-56"/>
       <use x="63.623047" xlink:href="#DejaVuSans-48"/>
      </g>
     </g>
    </g>
    <g id="ytick_6">
     <g id="line2d_13">
      <g>
       <use style="stroke:#000000;stroke-width:0.8;" x="57.6" xlink:href="#mb85e9f14b6" y="106.488"/>
      </g>
     </g>
     <g id="text_13">
      <!-- 100 -->
      <g transform="translate(31.5125 110.287219)scale(0.1 -0.1)">
       <use xlink:href="#DejaVuSans-49"/>
       <use x="63.623047" xlink:href="#DejaVuSans-48"/>
       <use x="127.246094" xlink:href="#DejaVuSans-48"/>
      </g>
     </g>
    </g>
    <g id="ytick_7">
     <g id="line2d_14">
      <g>
       <use style="stroke:#000000;stroke-width:0.8;" x="57.6" xlink:href="#mb85e9f14b6" y="68.688"/>
      </g>
     </g>
     <g id="text_14">
      <!-- 120 -->
      <g transform="translate(31.5125 72.487219)scale(0.1 -0.1)">
       <use xlink:href="#DejaVuSans-49"/>
       <use x="63.623047" xlink:href="#DejaVuSans-50"/>
       <use x="127.246094" xlink:href="#DejaVuSans-48"/>
      </g>
     </g>
    </g>
   </g>
   <g id="line2d_15">
    <path clip-path="url(#p85131284a0)" d="M 73.832727 289.818 
L 74.918528 291.708 
L 78.175932 286.038 
L 80.347534 289.818 
L 81.433335 287.928 
L 85.77654 295.488 
L 93.377148 282.258 
L 96.634552 287.928 
L 97.720353 286.038 
L 99.891955 289.818 
L 107.492563 276.588 
L 108.578364 278.478 
L 111.835768 272.808 
L 112.921569 274.698 
L 120.522177 261.468 
L 121.607978 263.358 
L 124.865382 257.688 
L 125.951183 259.578 
L 127.036984 257.688 
L 128.122785 259.578 
L 132.46599 252.018 
L 133.551791 253.908 
L 136.809194 248.238 
L 138.980797 252.018 
L 146.581405 238.788 
L 148.753007 242.568 
L 150.924609 238.788 
L 152.01041 240.678 
L 156.353615 233.118 
L 157.439416 235.008 
L 161.782621 227.448 
L 162.868422 229.338 
L 163.954223 227.448 
L 165.040024 229.338 
L 173.726434 214.218 
L 174.812235 216.108 
L 176.983837 212.328 
L 178.069638 214.218 
L 181.327042 208.548 
L 182.412843 210.438 
L 185.670246 204.768 
L 187.841849 208.548 
L 191.099252 202.878 
L 195.442457 210.438 
L 196.528258 208.548 
L 197.614059 210.438 
L 199.785661 206.658 
L 200.871462 208.548 
L 201.957264 206.658 
L 204.128866 210.438 
L 208.472071 202.878 
L 209.557872 204.768 
L 213.901076 197.208 
L 214.986877 199.098 
L 219.330082 191.538 
L 220.415883 193.428 
L 223.673287 187.758 
L 226.93069 193.428 
L 229.102292 189.648 
L 231.273895 193.428 
L 232.359696 191.538 
L 235.617099 197.208 
L 236.702901 195.318 
L 237.788702 197.208 
L 241.046105 191.538 
L 243.217708 195.318 
L 249.732514 183.978 
L 250.818316 185.868 
L 255.16152 178.308 
L 257.333123 182.088 
L 263.847929 170.748 
L 264.933731 172.638 
L 267.105333 168.858 
L 269.276935 172.638 
L 273.62014 165.078 
L 274.705941 166.968 
L 277.963344 161.298 
L 280.134947 165.078 
L 282.306549 161.298 
L 283.39235 163.188 
L 286.649754 157.518 
L 294.250362 170.748 
L 295.336163 168.858 
L 296.421964 170.748 
L 300.765169 163.188 
L 302.936771 166.968 
L 307.279976 159.408 
L 308.365777 161.298 
L 309.451578 159.408 
L 311.62318 163.188 
L 312.708981 161.298 
L 313.794783 163.188 
L 314.880584 161.298 
L 317.052186 165.078 
L 319.223788 161.298 
L 322.481192 166.968 
L 324.652794 163.188 
L 325.738595 165.078 
L 327.910198 161.298 
L 328.995999 163.188 
L 330.0818 161.298 
L 332.253402 165.078 
L 339.85401 151.848 
L 340.939811 153.738 
L 342.025613 151.848 
L 344.197215 155.628 
L 345.283016 153.738 
L 347.454618 157.518 
L 348.54042 155.628 
L 349.626221 157.518 
L 350.712022 155.628 
L 351.797823 157.518 
L 352.883624 155.628 
L 353.969425 157.518 
L 356.141028 153.738 
L 358.31263 157.518 
L 361.570033 151.848 
L 363.741636 155.628 
L 368.08484 148.068 
L 369.170642 149.958 
L 370.256443 148.068 
L 371.342244 149.958 
L 376.77125 140.508 
L 377.857051 142.398 
L 380.028653 138.618 
L 381.114454 140.508 
L 385.457659 132.948 
L 387.629261 136.728 
L 388.715062 134.838 
L 390.886665 138.618 
L 391.972466 136.728 
L 393.058267 138.618 
L 395.229869 134.838 
L 396.31567 136.728 
L 398.487273 132.948 
L 398.487273 132.948 
" style="fill:none;stroke:#740a01;stroke-linecap:square;stroke-opacity:0.3;stroke-width:0.5;"/>
   </g>
   <g id="line2d_16">
    <path clip-path="url(#p85131284a0)" d="M 73.832727 293.598 
L 74.918528 295.488 
L 81.433335 284.148 
L 82.519137 286.038 
L 91.205546 270.918 
L 93.377148 274.698 
L 94.462949 272.808 
L 96.634552 276.588 
L 106.406762 259.578 
L 111.835768 269.028 
L 112.921569 267.138 
L 115.093171 270.918 
L 116.178972 269.028 
L 117.264773 270.918 
L 118.350575 269.028 
L 120.522177 272.808 
L 121.607978 270.918 
L 122.693779 272.808 
L 123.77958 270.918 
L 124.865382 272.808 
L 125.951183 270.918 
L 128.122785 274.698 
L 129.208586 272.808 
L 130.294387 274.698 
L 134.637592 267.138 
L 135.723393 269.028 
L 136.809194 267.138 
L 138.980797 270.918 
L 140.066598 269.028 
L 143.324001 274.698 
L 156.353615 252.018 
L 157.439416 253.908 
L 161.782621 246.348 
L 162.868422 248.238 
L 171.554831 233.118 
L 172.640632 235.008 
L 174.812235 231.228 
L 175.898036 233.118 
L 181.327042 223.668 
L 182.412843 225.558 
L 183.498644 223.668 
L 187.841849 231.228 
L 193.270854 221.778 
L 195.442457 225.558 
L 196.528258 223.668 
L 197.614059 225.558 
L 201.957264 217.998 
L 203.043065 219.888 
L 205.214667 216.108 
L 207.386269 219.888 
L 209.557872 216.108 
L 210.643673 217.998 
L 212.815275 214.218 
L 216.072679 219.888 
L 220.415883 212.328 
L 221.501684 214.218 
L 222.587486 212.328 
L 225.844889 217.998 
L 228.016491 214.218 
L 230.188094 217.998 
L 235.617099 208.548 
L 237.788702 212.328 
L 239.960304 208.548 
L 243.217708 214.218 
L 244.303509 212.328 
L 245.38931 214.218 
L 249.732514 206.658 
L 250.818316 208.548 
L 256.247321 199.098 
L 257.333123 200.988 
L 260.590526 195.318 
L 261.676327 197.208 
L 264.933731 191.538 
L 266.019532 193.428 
L 277.963344 172.638 
L 279.049146 174.528 
L 282.306549 168.858 
L 284.478151 172.638 
L 285.563953 170.748 
L 286.649754 172.638 
L 287.735555 170.748 
L 289.907157 174.528 
L 295.336163 165.078 
L 296.421964 166.968 
L 298.593566 163.188 
L 300.765169 166.968 
L 302.936771 163.188 
L 304.022572 165.078 
L 305.108373 163.188 
L 308.365777 168.858 
L 310.537379 165.078 
L 311.62318 166.968 
L 314.880584 161.298 
L 315.966385 163.188 
L 319.223788 157.518 
L 320.30959 159.408 
L 323.566993 153.738 
L 324.652794 155.628 
L 325.738595 153.738 
L 326.824396 155.628 
L 327.910198 153.738 
L 328.995999 155.628 
L 331.167601 151.848 
L 333.339203 155.628 
L 334.425005 153.738 
L 335.510806 155.628 
L 339.85401 148.068 
L 340.939811 149.958 
L 343.111414 146.178 
L 344.197215 148.068 
L 345.283016 146.178 
L 346.368817 148.068 
L 351.797823 138.618 
L 353.969425 142.398 
L 355.055227 140.508 
L 356.141028 142.398 
L 359.398431 136.728 
L 360.484232 138.618 
L 361.570033 136.728 
L 362.655835 138.618 
L 364.827437 134.838 
L 365.913238 136.728 
L 366.999039 134.838 
L 369.170642 138.618 
L 370.256443 136.728 
L 374.599647 144.288 
L 376.77125 140.508 
L 377.857051 142.398 
L 382.200255 134.838 
L 383.286057 136.728 
L 384.371858 134.838 
L 386.54346 138.618 
L 389.800863 132.948 
L 390.886665 134.838 
L 395.229869 127.278 
L 396.31567 129.168 
L 398.487273 125.388 
L 398.487273 125.388 
" style="fill:none;stroke:#740a01;stroke-linecap:square;stroke-opacity:0.3;stroke-width:0.5;"/>
   </g>
   <g id="line2d_17">
    <path clip-path="url(#p85131284a0)" d="M 73.832727 295.488 
L 74.918528 293.598 
L 76.00433 295.488 
L 79.261733 289.818 
L 80.347534 291.708 
L 83.604938 286.038 
L 86.862341 291.708 
L 87.948142 289.818 
L 90.119745 293.598 
L 93.377148 287.928 
L 95.54875 291.708 
L 99.891955 284.148 
L 100.977756 286.038 
L 106.406762 276.588 
L 107.492563 278.478 
L 110.749967 272.808 
L 111.835768 274.698 
L 114.00737 270.918 
L 116.178972 274.698 
L 117.264773 272.808 
L 120.522177 278.478 
L 121.607978 276.588 
L 123.77958 280.368 
L 124.865382 278.478 
L 125.951183 280.368 
L 132.46599 269.028 
L 133.551791 270.918 
L 140.066598 259.578 
L 141.152399 261.468 
L 146.581405 252.018 
L 147.667206 253.908 
L 149.838808 250.128 
L 150.924609 252.018 
L 153.096212 248.238 
L 155.267814 252.018 
L 158.525217 246.348 
L 160.69682 250.128 
L 171.554831 231.228 
L 172.640632 233.118 
L 173.726434 231.228 
L 175.898036 235.008 
L 178.069638 231.228 
L 180.24124 235.008 
L 186.756047 223.668 
L 187.841849 225.558 
L 188.92765 223.668 
L 190.013451 225.558 
L 193.270854 219.888 
L 200.871462 233.118 
L 206.300468 223.668 
L 207.386269 225.558 
L 212.815275 216.108 
L 213.901076 217.998 
L 216.072679 214.218 
L 217.15848 216.108 
L 221.501684 208.548 
L 223.673287 212.328 
L 225.844889 208.548 
L 226.93069 210.438 
L 229.102292 206.658 
L 230.188094 208.548 
L 234.531298 200.988 
L 235.617099 202.878 
L 242.131906 191.538 
L 243.217708 193.428 
L 247.560912 185.868 
L 248.646713 187.758 
L 249.732514 185.868 
L 250.818316 187.758 
L 254.075719 182.088 
L 255.16152 183.978 
L 257.333123 180.198 
L 258.418924 182.088 
L 262.762128 174.528 
L 263.847929 176.418 
L 266.019532 172.638 
L 268.191134 176.418 
L 272.534339 168.858 
L 273.62014 170.748 
L 274.705941 168.858 
L 275.791742 170.748 
L 281.220748 161.298 
L 284.478151 166.968 
L 288.821356 159.408 
L 290.992958 163.188 
L 293.164561 159.408 
L 294.250362 161.298 
L 295.336163 159.408 
L 296.421964 161.298 
L 301.85097 151.848 
L 302.936771 153.738 
L 310.537379 140.508 
L 312.708981 144.288 
L 318.137987 134.838 
L 319.223788 136.728 
L 321.395391 132.948 
L 323.566993 136.728 
L 324.652794 134.838 
L 325.738595 136.728 
L 332.253402 125.388 
L 333.339203 127.278 
L 334.425005 125.388 
L 336.596607 129.168 
L 340.939811 121.608 
L 342.025613 123.498 
L 343.111414 121.608 
L 345.283016 125.388 
L 347.454618 121.608 
L 348.54042 123.498 
L 350.712022 119.718 
L 353.969425 125.388 
L 357.226829 119.718 
L 358.31263 121.608 
L 360.484232 117.828 
L 364.827437 125.388 
L 365.913238 123.498 
L 366.999039 125.388 
L 368.08484 123.498 
L 369.170642 125.388 
L 370.256443 123.498 
L 372.428045 127.278 
L 376.77125 119.718 
L 378.942852 123.498 
L 386.54346 110.268 
L 387.629261 112.158 
L 390.886665 106.488 
L 391.972466 108.378 
L 393.058267 106.488 
L 394.144068 108.378 
L 395.229869 106.488 
L 396.31567 108.378 
L 397.401472 106.488 
L 398.487273 108.378 
L 398.487273 108.378 
" style="fill:none;stroke:#740a01;stroke-linecap:square;stroke-opacity:0.3;stroke-width:0.5;"/>
   </g>
   <g id="line2d_18">
    <path clip-path="url(#p85131284a0)" d="M 73.832727 295.488 
L 78.175932 287.928 
L 79.261733 289.818 
L 81.433335 286.038 
L 85.77654 293.598 
L 89.033943 287.928 
L 90.119745 289.818 
L 91.205546 287.928 
L 92.291347 289.818 
L 100.977756 274.698 
L 103.149358 278.478 
L 106.406762 272.808 
L 108.578364 276.588 
L 110.749967 272.808 
L 111.835768 274.698 
L 114.00737 270.918 
L 115.093171 272.808 
L 116.178972 270.918 
L 122.693779 282.258 
L 129.208586 270.918 
L 130.294387 272.808 
L 132.46599 269.028 
L 133.551791 270.918 
L 147.667206 246.348 
L 149.838808 250.128 
L 150.924609 248.238 
L 152.01041 250.128 
L 153.096212 248.238 
L 154.182013 250.128 
L 156.353615 246.348 
L 157.439416 248.238 
L 159.611019 244.458 
L 160.69682 246.348 
L 161.782621 244.458 
L 162.868422 246.348 
L 166.125825 240.678 
L 167.211627 242.568 
L 176.983837 225.558 
L 178.069638 227.448 
L 182.412843 219.888 
L 183.498644 221.778 
L 184.584445 219.888 
L 185.670246 221.778 
L 188.92765 216.108 
L 196.528258 229.338 
L 198.69986 225.558 
L 199.785661 227.448 
L 205.214667 217.998 
L 206.300468 219.888 
L 207.386269 217.998 
L 208.472071 219.888 
L 209.557872 217.998 
L 210.643673 219.888 
L 212.815275 216.108 
L 213.901076 217.998 
L 214.986877 216.108 
L 216.072679 217.998 
L 217.15848 216.108 
L 218.244281 217.998 
L 219.330082 216.108 
L 220.415883 217.998 
L 222.587486 214.218 
L 223.673287 216.108 
L 224.759088 214.218 
L 225.844889 216.108 
L 228.016491 212.328 
L 229.102292 214.218 
L 233.445497 206.658 
L 234.531298 208.548 
L 238.874503 200.988 
L 239.960304 202.878 
L 248.646713 187.758 
L 249.732514 189.648 
L 254.075719 182.088 
L 255.16152 183.978 
L 262.762128 170.748 
L 264.933731 174.528 
L 266.019532 172.638 
L 268.191134 176.418 
L 270.362736 172.638 
L 271.448538 174.528 
L 275.791742 166.968 
L 276.877543 168.858 
L 279.049146 165.078 
L 280.134947 166.968 
L 281.220748 165.078 
L 283.39235 168.858 
L 286.649754 163.188 
L 288.821356 166.968 
L 289.907157 165.078 
L 290.992958 166.968 
L 294.250362 161.298 
L 295.336163 163.188 
L 300.765169 153.738 
L 302.936771 157.518 
L 306.194175 151.848 
L 308.365777 155.628 
L 309.451578 153.738 
L 310.537379 155.628 
L 311.62318 153.738 
L 312.708981 155.628 
L 315.966385 149.958 
L 317.052186 151.848 
L 321.395391 144.288 
L 322.481192 146.178 
L 323.566993 144.288 
L 324.652794 146.178 
L 326.824396 142.398 
L 327.910198 144.288 
L 332.253402 136.728 
L 333.339203 138.618 
L 336.596607 132.948 
L 337.682408 134.838 
L 338.768209 132.948 
L 339.85401 134.838 
L 342.025613 131.058 
L 343.111414 132.948 
L 344.197215 131.058 
L 345.283016 132.948 
L 346.368817 131.058 
L 347.454618 132.948 
L 348.54042 131.058 
L 351.797823 136.728 
L 361.570033 119.718 
L 363.741636 123.498 
L 368.08484 115.938 
L 369.170642 117.828 
L 371.342244 114.048 
L 372.428045 115.938 
L 376.77125 108.378 
L 377.857051 110.268 
L 382.200255 102.708 
L 383.286057 104.598 
L 390.886665 91.368 
L 393.058267 95.148 
L 394.144068 93.258 
L 395.229869 95.148 
L 396.31567 93.258 
L 398.487273 97.038 
L 398.487273 97.038 
" style="fill:none;stroke:#740a01;stroke-linecap:square;stroke-opacity:0.3;stroke-width:0.5;"/>
   </g>
   <g id="line2d_19">
    <path clip-path="url(#p85131284a0)" d="M 73.832727 293.598 
L 74.918528 295.488 
L 86.862341 274.698 
L 87.948142 276.588 
L 92.291347 269.028 
L 94.462949 272.808 
L 95.54875 270.918 
L 96.634552 272.808 
L 100.977756 265.248 
L 103.149358 269.028 
L 104.23516 267.138 
L 105.320961 269.028 
L 109.664165 261.468 
L 111.835768 265.248 
L 115.093171 259.578 
L 116.178972 261.468 
L 119.436376 255.798 
L 122.693779 261.468 
L 124.865382 257.688 
L 125.951183 259.578 
L 127.036984 257.688 
L 128.122785 259.578 
L 138.980797 240.678 
L 140.066598 242.568 
L 144.409802 235.008 
L 145.495604 236.898 
L 147.667206 233.118 
L 149.838808 236.898 
L 154.182013 229.338 
L 155.267814 231.228 
L 159.611019 223.668 
L 165.040024 233.118 
L 166.125825 231.228 
L 168.297428 235.008 
L 174.812235 223.668 
L 175.898036 225.558 
L 176.983837 223.668 
L 178.069638 225.558 
L 182.412843 217.998 
L 184.584445 221.778 
L 186.756047 217.998 
L 187.841849 219.888 
L 188.92765 217.998 
L 190.013451 219.888 
L 191.099252 217.998 
L 192.185053 219.888 
L 195.442457 214.218 
L 196.528258 216.108 
L 198.69986 212.328 
L 199.785661 214.218 
L 205.214667 204.768 
L 206.300468 206.658 
L 207.386269 204.768 
L 208.472071 206.658 
L 209.557872 204.768 
L 212.815275 210.438 
L 213.901076 208.548 
L 214.986877 210.438 
L 218.244281 204.768 
L 219.330082 206.658 
L 220.415883 204.768 
L 221.501684 206.658 
L 224.759088 200.988 
L 226.93069 204.768 
L 228.016491 202.878 
L 231.273895 208.548 
L 234.531298 202.878 
L 235.617099 204.768 
L 239.960304 197.208 
L 241.046105 199.098 
L 242.131906 197.208 
L 245.38931 202.878 
L 247.560912 199.098 
L 250.818316 204.768 
L 251.904117 202.878 
L 256.247321 210.438 
L 269.276935 187.758 
L 271.448538 191.538 
L 273.62014 187.758 
L 275.791742 191.538 
L 277.963344 187.758 
L 280.134947 191.538 
L 290.992958 172.638 
L 292.07876 174.528 
L 294.250362 170.748 
L 295.336163 172.638 
L 300.765169 163.188 
L 302.936771 166.968 
L 305.108373 163.188 
L 306.194175 165.078 
L 313.794783 151.848 
L 315.966385 155.628 
L 318.137987 151.848 
L 319.223788 153.738 
L 326.824396 140.508 
L 327.910198 142.398 
L 328.995999 140.508 
L 330.0818 142.398 
L 332.253402 138.618 
L 333.339203 140.508 
L 334.425005 138.618 
L 335.510806 140.508 
L 336.596607 138.618 
L 337.682408 140.508 
L 339.85401 136.728 
L 340.939811 138.618 
L 342.025613 136.728 
L 343.111414 138.618 
L 350.712022 125.388 
L 351.797823 127.278 
L 353.969425 123.498 
L 355.055227 125.388 
L 358.31263 119.718 
L 359.398431 121.608 
L 360.484232 119.718 
L 361.570033 121.608 
L 362.655835 119.718 
L 363.741636 121.608 
L 364.827437 119.718 
L 365.913238 121.608 
L 366.999039 119.718 
L 369.170642 123.498 
L 373.513846 115.938 
L 381.114454 129.168 
L 382.200255 127.278 
L 384.371858 131.058 
L 385.457659 129.168 
L 386.54346 131.058 
L 388.715062 127.278 
L 389.800863 129.168 
L 390.886665 127.278 
L 391.972466 129.168 
L 398.487273 117.828 
L 398.487273 117.828 
" style="fill:none;stroke:#740a01;stroke-linecap:square;stroke-opacity:0.3;stroke-width:0.5;"/>
   </g>
   <g id="line2d_20">
    <path clip-path="url(#p85131284a0)" d="M 73.832727 293.598 
L 74.918528 295.488 
L 81.433335 284.148 
L 82.519137 286.038 
L 89.033943 274.698 
L 90.119745 276.588 
L 92.291347 272.808 
L 93.377148 274.698 
L 94.462949 272.808 
L 95.54875 274.698 
L 96.634552 272.808 
L 97.720353 274.698 
L 99.891955 270.918 
L 103.149358 276.588 
L 106.406762 270.918 
L 109.664165 276.588 
L 111.835768 272.808 
L 112.921569 274.698 
L 114.00737 272.808 
L 115.093171 274.698 
L 118.350575 269.028 
L 119.436376 270.918 
L 121.607978 267.138 
L 122.693779 269.028 
L 124.865382 265.248 
L 125.951183 267.138 
L 130.294387 259.578 
L 131.380189 261.468 
L 133.551791 257.688 
L 134.637592 259.578 
L 137.894995 253.908 
L 138.980797 255.798 
L 142.2382 250.128 
L 143.324001 252.018 
L 144.409802 250.128 
L 145.495604 252.018 
L 153.096212 238.788 
L 154.182013 240.678 
L 161.782621 227.448 
L 165.040024 233.118 
L 166.125825 231.228 
L 167.211627 233.118 
L 170.46903 227.448 
L 171.554831 229.338 
L 172.640632 227.448 
L 174.812235 231.228 
L 175.898036 229.338 
L 176.983837 231.228 
L 179.155439 227.448 
L 182.412843 233.118 
L 185.670246 227.448 
L 186.756047 229.338 
L 191.099252 221.778 
L 192.185053 223.668 
L 197.614059 214.218 
L 200.871462 219.888 
L 204.128866 214.218 
L 205.214667 216.108 
L 206.300468 214.218 
L 207.386269 216.108 
L 209.557872 212.328 
L 212.815275 217.998 
L 213.901076 216.108 
L 216.072679 219.888 
L 217.15848 217.998 
L 219.330082 221.778 
L 222.587486 216.108 
L 224.759088 219.888 
L 228.016491 214.218 
L 229.102292 216.108 
L 230.188094 214.218 
L 231.273895 216.108 
L 232.359696 214.218 
L 233.445497 216.108 
L 235.617099 212.328 
L 237.788702 216.108 
L 245.38931 202.878 
L 246.475111 204.768 
L 248.646713 200.988 
L 249.732514 202.878 
L 252.989918 197.208 
L 254.075719 199.098 
L 257.333123 193.428 
L 259.504725 197.208 
L 261.676327 193.428 
L 262.762128 195.318 
L 264.933731 191.538 
L 266.019532 193.428 
L 268.191134 189.648 
L 270.362736 193.428 
L 281.220748 174.528 
L 282.306549 176.418 
L 289.907157 163.188 
L 292.07876 166.968 
L 293.164561 165.078 
L 294.250362 166.968 
L 297.507765 161.298 
L 300.765169 166.968 
L 306.194175 157.518 
L 308.365777 161.298 
L 310.537379 157.518 
L 312.708981 161.298 
L 317.052186 153.738 
L 321.395391 161.298 
L 322.481192 159.408 
L 323.566993 161.298 
L 331.167601 148.068 
L 332.253402 149.958 
L 337.682408 140.508 
L 338.768209 142.398 
L 346.368817 129.168 
L 347.454618 131.058 
L 349.626221 127.278 
L 350.712022 129.168 
L 351.797823 127.278 
L 355.055227 132.948 
L 361.570033 121.608 
L 362.655835 123.498 
L 363.741636 121.608 
L 364.827437 123.498 
L 371.342244 112.158 
L 372.428045 114.048 
L 377.857051 104.598 
L 378.942852 106.488 
L 382.200255 100.818 
L 383.286057 102.708 
L 385.457659 98.928 
L 387.629261 102.708 
L 391.972466 95.148 
L 393.058267 97.038 
L 395.229869 93.258 
L 397.401472 97.038 
L 398.487273 95.148 
L 398.487273 95.148 
" style="fill:none;stroke:#740a01;stroke-linecap:square;stroke-opacity:0.3;stroke-width:0.5;"/>
   </g>
   <g id="line2d_21">
    <path clip-path="url(#p85131284a0)" d="M 73.832727 293.598 
L 74.918528 291.708 
L 77.090131 295.488 
L 82.519137 286.038 
L 83.604938 287.928 
L 84.690739 286.038 
L 85.77654 287.928 
L 97.720353 267.138 
L 98.806154 269.028 
L 120.522177 231.228 
L 124.865382 238.788 
L 129.208586 231.228 
L 130.294387 233.118 
L 132.46599 229.338 
L 133.551791 231.228 
L 134.637592 229.338 
L 136.809194 233.118 
L 141.152399 225.558 
L 142.2382 227.448 
L 144.409802 223.668 
L 145.495604 225.558 
L 150.924609 216.108 
L 153.096212 219.888 
L 155.267814 216.108 
L 156.353615 217.998 
L 159.611019 212.328 
L 160.69682 214.218 
L 161.782621 212.328 
L 162.868422 214.218 
L 166.125825 208.548 
L 167.211627 210.438 
L 168.297428 208.548 
L 169.383229 210.438 
L 174.812235 200.988 
L 175.898036 202.878 
L 176.983837 200.988 
L 178.069638 202.878 
L 182.412843 195.318 
L 183.498644 197.208 
L 184.584445 195.318 
L 185.670246 197.208 
L 186.756047 195.318 
L 187.841849 197.208 
L 191.099252 191.538 
L 194.356656 197.208 
L 195.442457 195.318 
L 200.871462 204.768 
L 201.957264 202.878 
L 203.043065 204.768 
L 208.472071 195.318 
L 209.557872 197.208 
L 210.643673 195.318 
L 211.729474 197.208 
L 217.15848 187.758 
L 218.244281 189.648 
L 222.587486 182.088 
L 223.673287 183.978 
L 225.844889 180.198 
L 228.016491 183.978 
L 236.702901 168.858 
L 237.788702 170.748 
L 241.046105 165.078 
L 242.131906 166.968 
L 245.38931 161.298 
L 246.475111 163.188 
L 247.560912 161.298 
L 250.818316 166.968 
L 252.989918 163.188 
L 257.333123 170.748 
L 260.590526 165.078 
L 262.762128 168.858 
L 268.191134 159.408 
L 269.276935 161.298 
L 272.534339 155.628 
L 273.62014 157.518 
L 274.705941 155.628 
L 277.963344 161.298 
L 279.049146 159.408 
L 280.134947 161.298 
L 281.220748 159.408 
L 282.306549 161.298 
L 288.821356 149.958 
L 289.907157 151.848 
L 292.07876 148.068 
L 293.164561 149.958 
L 297.507765 142.398 
L 298.593566 144.288 
L 302.936771 136.728 
L 304.022572 138.618 
L 306.194175 134.838 
L 310.537379 142.398 
L 311.62318 140.508 
L 312.708981 142.398 
L 319.223788 131.058 
L 321.395391 134.838 
L 322.481192 132.948 
L 323.566993 134.838 
L 324.652794 132.948 
L 327.910198 138.618 
L 332.253402 131.058 
L 333.339203 132.948 
L 337.682408 125.388 
L 339.85401 129.168 
L 346.368817 117.828 
L 347.454618 119.718 
L 348.54042 117.828 
L 349.626221 119.718 
L 351.797823 115.938 
L 352.883624 117.828 
L 358.31263 108.378 
L 359.398431 110.268 
L 364.827437 100.818 
L 366.999039 104.598 
L 368.08484 102.708 
L 370.256443 106.488 
L 375.685448 97.038 
L 376.77125 98.928 
L 382.200255 89.478 
L 384.371858 93.258 
L 386.54346 89.478 
L 389.800863 95.148 
L 390.886665 93.258 
L 391.972466 95.148 
L 395.229869 89.478 
L 397.401472 93.258 
L 398.487273 91.368 
L 398.487273 91.368 
" style="fill:none;stroke:#740a01;stroke-linecap:square;stroke-opacity:0.3;stroke-width:0.5;"/>
   </g>
   <g id="line2d_22">
    <path clip-path="url(#p85131284a0)" d="M 73.832727 295.488 
L 76.00433 291.708 
L 77.090131 293.598 
L 79.261733 289.818 
L 81.433335 293.598 
L 90.119745 278.478 
L 91.205546 280.368 
L 94.462949 274.698 
L 96.634552 278.478 
L 98.806154 274.698 
L 99.891955 276.588 
L 102.063557 272.808 
L 104.23516 276.588 
L 115.093171 257.688 
L 116.178972 259.578 
L 119.436376 253.908 
L 120.522177 255.798 
L 128.122785 242.568 
L 130.294387 246.348 
L 132.46599 242.568 
L 134.637592 246.348 
L 135.723393 244.458 
L 136.809194 246.348 
L 138.980797 242.568 
L 142.2382 248.238 
L 144.409802 244.458 
L 145.495604 246.348 
L 146.581405 244.458 
L 148.753007 248.238 
L 153.096212 240.678 
L 155.267814 244.458 
L 157.439416 240.678 
L 160.69682 246.348 
L 165.040024 238.788 
L 169.383229 246.348 
L 171.554831 242.568 
L 172.640632 244.458 
L 173.726434 242.568 
L 175.898036 246.348 
L 179.155439 240.678 
L 180.24124 242.568 
L 186.756047 231.228 
L 188.92765 235.008 
L 196.528258 221.778 
L 197.614059 223.668 
L 198.69986 221.778 
L 199.785661 223.668 
L 201.957264 219.888 
L 203.043065 221.778 
L 209.557872 210.438 
L 211.729474 214.218 
L 219.330082 200.988 
L 221.501684 204.768 
L 225.844889 197.208 
L 226.93069 199.098 
L 230.188094 193.428 
L 231.273895 195.318 
L 238.874503 182.088 
L 239.960304 183.978 
L 241.046105 182.088 
L 242.131906 183.978 
L 247.560912 174.528 
L 248.646713 176.418 
L 250.818316 172.638 
L 251.904117 174.528 
L 255.16152 168.858 
L 256.247321 170.748 
L 269.276935 148.068 
L 270.362736 149.958 
L 271.448538 148.068 
L 274.705941 153.738 
L 280.134947 144.288 
L 281.220748 146.178 
L 286.649754 136.728 
L 287.735555 138.618 
L 292.07876 131.058 
L 293.164561 132.948 
L 295.336163 129.168 
L 296.421964 131.058 
L 299.679368 125.388 
L 302.936771 131.058 
L 305.108373 127.278 
L 306.194175 129.168 
L 312.708981 117.828 
L 313.794783 119.718 
L 315.966385 115.938 
L 317.052186 117.828 
L 320.30959 112.158 
L 321.395391 114.048 
L 328.995999 100.818 
L 330.0818 102.708 
L 334.425005 95.148 
L 336.596607 98.928 
L 338.768209 95.148 
L 339.85401 97.038 
L 340.939811 95.148 
L 342.025613 97.038 
L 343.111414 95.148 
L 344.197215 97.038 
L 345.283016 95.148 
L 346.368817 97.038 
L 347.454618 95.148 
L 348.54042 97.038 
L 350.712022 93.258 
L 351.797823 95.148 
L 352.883624 93.258 
L 353.969425 95.148 
L 356.141028 91.368 
L 357.226829 93.258 
L 360.484232 87.588 
L 361.570033 89.478 
L 364.827437 83.808 
L 365.913238 85.698 
L 369.170642 80.028 
L 370.256443 81.918 
L 372.428045 78.138 
L 373.513846 80.028 
L 378.942852 70.578 
L 380.028653 72.468 
L 382.200255 68.688 
L 384.371858 72.468 
L 390.886665 61.128 
L 391.972466 63.018 
L 397.401472 53.568 
L 398.487273 55.458 
L 398.487273 55.458 
" style="fill:none;stroke:#740a01;stroke-linecap:square;stroke-opacity:0.3;stroke-width:0.5;"/>
   </g>
   <g id="line2d_23">
    <path clip-path="url(#p85131284a0)" d="M 73.832727 291.708 
L 76.00433 295.488 
L 80.347534 287.928 
L 81.433335 289.818 
L 82.519137 287.928 
L 83.604938 289.818 
L 86.862341 284.148 
L 87.948142 286.038 
L 90.119745 282.258 
L 97.720353 295.488 
L 102.063557 287.928 
L 105.320961 293.598 
L 107.492563 289.818 
L 108.578364 291.708 
L 114.00737 282.258 
L 115.093171 284.148 
L 116.178972 282.258 
L 117.264773 284.148 
L 121.607978 276.588 
L 122.693779 278.478 
L 125.951183 272.808 
L 130.294387 280.368 
L 131.380189 278.478 
L 134.637592 284.148 
L 143.324001 269.028 
L 148.753007 278.478 
L 155.267814 267.138 
L 157.439416 270.918 
L 162.868422 261.468 
L 163.954223 263.358 
L 166.125825 259.578 
L 167.211627 261.468 
L 168.297428 259.578 
L 171.554831 265.248 
L 173.726434 261.468 
L 174.812235 263.358 
L 176.983837 259.578 
L 178.069638 261.468 
L 180.24124 257.688 
L 182.412843 261.468 
L 185.670246 255.798 
L 186.756047 257.688 
L 194.356656 244.458 
L 196.528258 248.238 
L 198.69986 244.458 
L 199.785661 246.348 
L 201.957264 242.568 
L 203.043065 244.458 
L 211.729474 229.338 
L 213.901076 233.118 
L 214.986877 231.228 
L 217.15848 235.008 
L 218.244281 233.118 
L 219.330082 235.008 
L 222.587486 229.338 
L 223.673287 231.228 
L 226.93069 225.558 
L 228.016491 227.448 
L 231.273895 221.778 
L 234.531298 227.448 
L 235.617099 225.558 
L 236.702901 227.448 
L 241.046105 219.888 
L 243.217708 223.668 
L 245.38931 219.888 
L 246.475111 221.778 
L 247.560912 219.888 
L 248.646713 221.778 
L 249.732514 219.888 
L 250.818316 221.778 
L 252.989918 217.998 
L 254.075719 219.888 
L 260.590526 208.548 
L 262.762128 212.328 
L 263.847929 210.438 
L 264.933731 212.328 
L 266.019532 210.438 
L 267.105333 212.328 
L 270.362736 206.658 
L 271.448538 208.548 
L 275.791742 200.988 
L 276.877543 202.878 
L 277.963344 200.988 
L 279.049146 202.878 
L 280.134947 200.988 
L 285.563953 210.438 
L 287.735555 206.658 
L 288.821356 208.548 
L 289.907157 206.658 
L 290.992958 208.548 
L 293.164561 204.768 
L 295.336163 208.548 
L 296.421964 206.658 
L 297.507765 208.548 
L 300.765169 202.878 
L 302.936771 206.658 
L 305.108373 202.878 
L 307.279976 206.658 
L 309.451578 202.878 
L 310.537379 204.768 
L 323.566993 182.088 
L 328.995999 191.538 
L 333.339203 183.978 
L 336.596607 189.648 
L 340.939811 182.088 
L 342.025613 183.978 
L 348.54042 172.638 
L 350.712022 176.418 
L 355.055227 168.858 
L 357.226829 172.638 
L 359.398431 168.858 
L 360.484232 170.748 
L 361.570033 168.858 
L 362.655835 170.748 
L 363.741636 168.858 
L 365.913238 172.638 
L 366.999039 170.748 
L 369.170642 174.528 
L 370.256443 172.638 
L 371.342244 174.528 
L 377.857051 163.188 
L 380.028653 166.968 
L 381.114454 165.078 
L 384.371858 170.748 
L 385.457659 168.858 
L 387.629261 172.638 
L 389.800863 168.858 
L 393.058267 174.528 
L 396.31567 168.858 
L 397.401472 170.748 
L 398.487273 168.858 
L 398.487273 168.858 
" style="fill:none;stroke:#740a01;stroke-linecap:square;stroke-opacity:0.3;stroke-width:0.5;"/>
   </g>
   <g id="line2d_24">
    <path clip-path="url(#p85131284a0)" d="M 73.832727 287.928 
L 74.918528 289.818 
L 76.00433 287.928 
L 77.090131 289.818 
L 78.175932 287.928 
L 79.261733 289.818 
L 80.347534 287.928 
L 81.433335 289.818 
L 82.519137 287.928 
L 84.690739 291.708 
L 85.77654 289.818 
L 86.862341 291.708 
L 87.948142 289.818 
L 90.119745 293.598 
L 91.205546 291.708 
L 93.377148 295.488 
L 98.806154 286.038 
L 99.891955 287.928 
L 100.977756 286.038 
L 102.063557 287.928 
L 103.149358 286.038 
L 104.23516 287.928 
L 109.664165 278.478 
L 110.749967 280.368 
L 115.093171 272.808 
L 117.264773 276.588 
L 119.436376 272.808 
L 120.522177 274.698 
L 121.607978 272.808 
L 122.693779 274.698 
L 130.294387 261.468 
L 131.380189 263.358 
L 132.46599 261.468 
L 133.551791 263.358 
L 134.637592 261.468 
L 135.723393 263.358 
L 140.066598 255.798 
L 141.152399 257.688 
L 142.2382 255.798 
L 144.409802 259.578 
L 145.495604 257.688 
L 147.667206 261.468 
L 148.753007 259.578 
L 150.924609 263.358 
L 154.182013 257.688 
L 155.267814 259.578 
L 157.439416 255.798 
L 158.525217 257.688 
L 162.868422 250.128 
L 168.297428 259.578 
L 169.383229 257.688 
L 170.46903 259.578 
L 172.640632 255.798 
L 173.726434 257.688 
L 174.812235 255.798 
L 175.898036 257.688 
L 179.155439 252.018 
L 180.24124 253.908 
L 183.498644 248.238 
L 186.756047 253.908 
L 187.841849 252.018 
L 192.185053 259.578 
L 194.356656 255.798 
L 198.69986 263.358 
L 199.785661 261.468 
L 200.871462 263.358 
L 201.957264 261.468 
L 203.043065 263.358 
L 205.214667 259.578 
L 208.472071 265.248 
L 210.643673 261.468 
L 211.729474 263.358 
L 214.986877 257.688 
L 216.072679 259.578 
L 217.15848 257.688 
L 219.330082 261.468 
L 220.415883 259.578 
L 221.501684 261.468 
L 224.759088 255.798 
L 225.844889 257.688 
L 232.359696 246.348 
L 234.531298 250.128 
L 244.303509 233.118 
L 246.475111 236.898 
L 247.560912 235.008 
L 248.646713 236.898 
L 250.818316 233.118 
L 251.904117 235.008 
L 252.989918 233.118 
L 254.075719 235.008 
L 255.16152 233.118 
L 256.247321 235.008 
L 271.448538 208.548 
L 273.62014 212.328 
L 275.791742 208.548 
L 276.877543 210.438 
L 277.963344 208.548 
L 279.049146 210.438 
L 280.134947 208.548 
L 282.306549 212.328 
L 287.735555 202.878 
L 288.821356 204.768 
L 290.992958 200.988 
L 292.07876 202.878 
L 293.164561 200.988 
L 295.336163 204.768 
L 306.194175 185.868 
L 308.365777 189.648 
L 310.537379 185.868 
L 311.62318 187.758 
L 312.708981 185.868 
L 314.880584 189.648 
L 315.966385 187.758 
L 317.052186 189.648 
L 318.137987 187.758 
L 319.223788 189.648 
L 320.30959 187.758 
L 321.395391 189.648 
L 324.652794 183.978 
L 326.824396 187.758 
L 330.0818 182.088 
L 331.167601 183.978 
L 334.425005 178.308 
L 337.682408 183.978 
L 338.768209 182.088 
L 339.85401 183.978 
L 342.025613 180.198 
L 344.197215 183.978 
L 346.368817 180.198 
L 347.454618 182.088 
L 348.54042 180.198 
L 349.626221 182.088 
L 351.797823 178.308 
L 355.055227 183.978 
L 357.226829 180.198 
L 358.31263 182.088 
L 360.484232 178.308 
L 363.741636 183.978 
L 385.457659 146.178 
L 386.54346 148.068 
L 388.715062 144.288 
L 389.800863 146.178 
L 390.886665 144.288 
L 391.972466 146.178 
L 395.229869 140.508 
L 396.31567 142.398 
L 397.401472 140.508 
L 398.487273 142.398 
L 398.487273 142.398 
" style="fill:none;stroke:#740a01;stroke-linecap:square;stroke-opacity:0.3;stroke-width:0.5;"/>
   </g>
   <g id="line2d_25">
    <path clip-path="url(#p85131284a0)" d="M 73.832727 295.488 
L 76.00433 291.708 
L 78.175932 295.488 
L 79.261733 293.598 
L 80.347534 295.488 
L 81.433335 293.598 
L 82.519137 295.488 
L 83.604938 293.598 
L 84.690739 295.488 
L 86.862341 291.708 
L 89.033943 295.488 
L 91.205546 291.708 
L 92.291347 293.598 
L 93.377148 291.708 
L 94.462949 293.598 
L 96.634552 289.818 
L 97.720353 291.708 
L 103.149358 282.258 
L 104.23516 284.148 
L 105.320961 282.258 
L 107.492563 286.038 
L 110.749967 280.368 
L 111.835768 282.258 
L 119.436376 269.028 
L 122.693779 274.698 
L 123.77958 272.808 
L 124.865382 274.698 
L 127.036984 270.918 
L 130.294387 276.588 
L 132.46599 272.808 
L 133.551791 274.698 
L 134.637592 272.808 
L 135.723393 274.698 
L 141.152399 265.248 
L 144.409802 270.918 
L 154.182013 253.908 
L 156.353615 257.688 
L 157.439416 255.798 
L 158.525217 257.688 
L 159.611019 255.798 
L 161.782621 259.578 
L 162.868422 257.688 
L 163.954223 259.578 
L 166.125825 255.798 
L 167.211627 257.688 
L 169.383229 253.908 
L 171.554831 257.688 
L 172.640632 255.798 
L 173.726434 257.688 
L 175.898036 253.908 
L 176.983837 255.798 
L 178.069638 253.908 
L 181.327042 259.578 
L 183.498644 255.798 
L 184.584445 257.688 
L 194.356656 240.678 
L 196.528258 244.458 
L 199.785661 238.788 
L 200.871462 240.678 
L 203.043065 236.898 
L 205.214667 240.678 
L 206.300468 238.788 
L 208.472071 242.568 
L 212.815275 235.008 
L 216.072679 240.678 
L 219.330082 235.008 
L 221.501684 238.788 
L 222.587486 236.898 
L 223.673287 238.788 
L 228.016491 231.228 
L 229.102292 233.118 
L 233.445497 225.558 
L 234.531298 227.448 
L 238.874503 219.888 
L 241.046105 223.668 
L 243.217708 219.888 
L 244.303509 221.778 
L 245.38931 219.888 
L 247.560912 223.668 
L 255.16152 210.438 
L 259.504725 217.998 
L 269.276935 200.988 
L 271.448538 204.768 
L 283.39235 183.978 
L 284.478151 185.868 
L 292.07876 172.638 
L 293.164561 174.528 
L 295.336163 170.748 
L 297.507765 174.528 
L 298.593566 172.638 
L 300.765169 176.418 
L 304.022572 170.748 
L 305.108373 172.638 
L 310.537379 163.188 
L 311.62318 165.078 
L 312.708981 163.188 
L 315.966385 168.858 
L 319.223788 163.188 
L 320.30959 165.078 
L 321.395391 163.188 
L 327.910198 174.528 
L 335.510806 161.298 
L 337.682408 165.078 
L 342.025613 157.518 
L 343.111414 159.408 
L 344.197215 157.518 
L 345.283016 159.408 
L 349.626221 151.848 
L 350.712022 153.738 
L 351.797823 151.848 
L 355.055227 157.518 
L 356.141028 155.628 
L 360.484232 163.188 
L 364.827437 155.628 
L 366.999039 159.408 
L 374.599647 146.178 
L 375.685448 148.068 
L 378.942852 142.398 
L 381.114454 146.178 
L 382.200255 144.288 
L 383.286057 146.178 
L 390.886665 132.948 
L 391.972466 134.838 
L 396.31567 127.278 
L 397.401472 129.168 
L 398.487273 127.278 
L 398.487273 127.278 
" style="fill:none;stroke:#740a01;stroke-linecap:square;stroke-opacity:0.3;stroke-width:0.5;"/>
   </g>
   <g id="line2d_26">
    <path clip-path="url(#p85131284a0)" d="M 73.832727 295.488 
L 76.00433 291.708 
L 77.090131 293.598 
L 80.347534 287.928 
L 81.433335 289.818 
L 83.604938 286.038 
L 84.690739 287.928 
L 87.948142 282.258 
L 89.033943 284.148 
L 90.119745 282.258 
L 91.205546 284.148 
L 95.54875 276.588 
L 96.634552 278.478 
L 97.720353 276.588 
L 98.806154 278.478 
L 105.320961 267.138 
L 108.578364 272.808 
L 111.835768 267.138 
L 112.921569 269.028 
L 116.178972 263.358 
L 117.264773 265.248 
L 120.522177 259.578 
L 122.693779 263.358 
L 125.951183 257.688 
L 128.122785 261.468 
L 132.46599 253.908 
L 133.551791 255.798 
L 134.637592 253.908 
L 135.723393 255.798 
L 136.809194 253.908 
L 138.980797 257.688 
L 141.152399 253.908 
L 143.324001 257.688 
L 144.409802 255.798 
L 145.495604 257.688 
L 146.581405 255.798 
L 147.667206 257.688 
L 149.838808 253.908 
L 150.924609 255.798 
L 153.096212 252.018 
L 156.353615 257.688 
L 157.439416 255.798 
L 158.525217 257.688 
L 160.69682 253.908 
L 161.782621 255.798 
L 169.383229 242.568 
L 170.46903 244.458 
L 173.726434 238.788 
L 174.812235 240.678 
L 176.983837 236.898 
L 178.069638 238.788 
L 183.498644 229.338 
L 184.584445 231.228 
L 186.756047 227.448 
L 188.92765 231.228 
L 194.356656 221.778 
L 198.69986 229.338 
L 200.871462 225.558 
L 201.957264 227.448 
L 204.128866 223.668 
L 205.214667 225.558 
L 206.300468 223.668 
L 208.472071 227.448 
L 209.557872 225.558 
L 211.729474 229.338 
L 212.815275 227.448 
L 214.986877 231.228 
L 216.072679 229.338 
L 217.15848 231.228 
L 218.244281 229.338 
L 219.330082 231.228 
L 221.501684 227.448 
L 224.759088 233.118 
L 225.844889 231.228 
L 228.016491 235.008 
L 229.102292 233.118 
L 230.188094 235.008 
L 231.273895 233.118 
L 232.359696 235.008 
L 235.617099 229.338 
L 237.788702 233.118 
L 241.046105 227.448 
L 242.131906 229.338 
L 245.38931 223.668 
L 246.475111 225.558 
L 248.646713 221.778 
L 254.075719 231.228 
L 256.247321 227.448 
L 257.333123 229.338 
L 259.504725 225.558 
L 260.590526 227.448 
L 261.676327 225.558 
L 262.762128 227.448 
L 264.933731 223.668 
L 266.019532 225.558 
L 269.276935 219.888 
L 270.362736 221.778 
L 271.448538 219.888 
L 273.62014 223.668 
L 274.705941 221.778 
L 275.791742 223.668 
L 277.963344 219.888 
L 279.049146 221.778 
L 288.821356 204.768 
L 290.992958 208.548 
L 293.164561 204.768 
L 295.336163 208.548 
L 296.421964 206.658 
L 300.765169 214.218 
L 306.194175 204.768 
L 309.451578 210.438 
L 312.708981 204.768 
L 313.794783 206.658 
L 315.966385 202.878 
L 317.052186 204.768 
L 318.137987 202.878 
L 319.223788 204.768 
L 320.30959 202.878 
L 321.395391 204.768 
L 324.652794 199.098 
L 325.738595 200.988 
L 328.995999 195.318 
L 330.0818 197.208 
L 336.596607 185.868 
L 338.768209 189.648 
L 352.883624 165.078 
L 357.226829 172.638 
L 360.484232 166.968 
L 362.655835 170.748 
L 366.999039 163.188 
L 368.08484 165.078 
L 370.256443 161.298 
L 371.342244 163.188 
L 375.685448 155.628 
L 376.77125 157.518 
L 381.114454 149.958 
L 382.200255 151.848 
L 383.286057 149.958 
L 384.371858 151.848 
L 387.629261 146.178 
L 389.800863 149.958 
L 396.31567 138.618 
L 397.401472 140.508 
L 398.487273 138.618 
L 398.487273 138.618 
" style="fill:none;stroke:#740a01;stroke-linecap:square;stroke-opacity:0.3;stroke-width:0.5;"/>
   </g>
   <g id="line2d_27">
    <path clip-path="url(#p85131284a0)" d="M 73.832727 293.598 
L 74.918528 295.488 
L 80.347534 286.038 
L 81.433335 287.928 
L 82.519137 286.038 
L 84.690739 289.818 
L 86.862341 286.038 
L 89.033943 289.818 
L 95.54875 278.478 
L 98.806154 284.148 
L 99.891955 282.258 
L 100.977756 284.148 
L 102.063557 282.258 
L 104.23516 286.038 
L 119.436376 259.578 
L 120.522177 261.468 
L 122.693779 257.688 
L 124.865382 261.468 
L 127.036984 257.688 
L 128.122785 259.578 
L 130.294387 255.798 
L 131.380189 257.688 
L 132.46599 255.798 
L 133.551791 257.688 
L 134.637592 255.798 
L 136.809194 259.578 
L 137.894995 257.688 
L 138.980797 259.578 
L 141.152399 255.798 
L 142.2382 257.688 
L 143.324001 255.798 
L 144.409802 257.688 
L 145.495604 255.798 
L 148.753007 261.468 
L 152.01041 255.798 
L 153.096212 257.688 
L 154.182013 255.798 
L 155.267814 257.688 
L 157.439416 253.908 
L 159.611019 257.688 
L 162.868422 252.018 
L 163.954223 253.908 
L 165.040024 252.018 
L 167.211627 255.798 
L 171.554831 248.238 
L 173.726434 252.018 
L 180.24124 240.678 
L 181.327042 242.568 
L 184.584445 236.898 
L 186.756047 240.678 
L 187.841849 238.788 
L 190.013451 242.568 
L 193.270854 236.898 
L 196.528258 242.568 
L 197.614059 240.678 
L 199.785661 244.458 
L 201.957264 240.678 
L 203.043065 242.568 
L 204.128866 240.678 
L 208.472071 248.238 
L 213.901076 238.788 
L 214.986877 240.678 
L 216.072679 238.788 
L 217.15848 240.678 
L 219.330082 236.898 
L 221.501684 240.678 
L 226.93069 231.228 
L 228.016491 233.118 
L 231.273895 227.448 
L 232.359696 229.338 
L 233.445497 227.448 
L 234.531298 229.338 
L 236.702901 225.558 
L 238.874503 229.338 
L 241.046105 225.558 
L 242.131906 227.448 
L 245.38931 221.778 
L 246.475111 223.668 
L 257.333123 204.768 
L 258.418924 206.658 
L 264.933731 195.318 
L 267.105333 199.098 
L 268.191134 197.208 
L 269.276935 199.098 
L 270.362736 197.208 
L 271.448538 199.098 
L 273.62014 195.318 
L 277.963344 202.878 
L 279.049146 200.988 
L 283.39235 208.548 
L 289.907157 197.208 
L 290.992958 199.098 
L 297.507765 187.758 
L 298.593566 189.648 
L 306.194175 176.418 
L 307.279976 178.308 
L 310.537379 172.638 
L 312.708981 176.418 
L 317.052186 168.858 
L 318.137987 170.748 
L 319.223788 168.858 
L 320.30959 170.748 
L 321.395391 168.858 
L 322.481192 170.748 
L 323.566993 168.858 
L 324.652794 170.748 
L 326.824396 166.968 
L 327.910198 168.858 
L 328.995999 166.968 
L 330.0818 168.858 
L 332.253402 165.078 
L 333.339203 166.968 
L 335.510806 163.188 
L 336.596607 165.078 
L 337.682408 163.188 
L 338.768209 165.078 
L 339.85401 163.188 
L 340.939811 165.078 
L 342.025613 163.188 
L 344.197215 166.968 
L 346.368817 163.188 
L 348.54042 166.968 
L 351.797823 161.298 
L 353.969425 165.078 
L 355.055227 163.188 
L 356.141028 165.078 
L 357.226829 163.188 
L 358.31263 165.078 
L 364.827437 153.738 
L 366.999039 157.518 
L 370.256443 151.848 
L 371.342244 153.738 
L 375.685448 146.178 
L 377.857051 149.958 
L 383.286057 140.508 
L 384.371858 142.398 
L 385.457659 140.508 
L 387.629261 144.288 
L 388.715062 142.398 
L 391.972466 148.068 
L 394.144068 144.288 
L 395.229869 146.178 
L 398.487273 140.508 
L 398.487273 140.508 
" style="fill:none;stroke:#740a01;stroke-linecap:square;stroke-opacity:0.3;stroke-width:0.5;"/>
   </g>
   <g id="line2d_28">
    <path clip-path="url(#p85131284a0)" d="M 73.832727 295.488 
L 83.604938 278.478 
L 84.690739 280.368 
L 87.948142 274.698 
L 90.119745 278.478 
L 97.720353 265.248 
L 98.806154 267.138 
L 99.891955 265.248 
L 100.977756 267.138 
L 102.063557 265.248 
L 107.492563 274.698 
L 116.178972 259.578 
L 118.350575 263.358 
L 120.522177 259.578 
L 121.607978 261.468 
L 123.77958 257.688 
L 127.036984 263.358 
L 128.122785 261.468 
L 129.208586 263.358 
L 134.637592 253.908 
L 135.723393 255.798 
L 138.980797 250.128 
L 141.152399 253.908 
L 144.409802 248.238 
L 146.581405 252.018 
L 149.838808 246.348 
L 150.924609 248.238 
L 152.01041 246.348 
L 154.182013 250.128 
L 155.267814 248.238 
L 156.353615 250.128 
L 157.439416 248.238 
L 158.525217 250.128 
L 162.868422 242.568 
L 163.954223 244.458 
L 165.040024 242.568 
L 166.125825 244.458 
L 167.211627 242.568 
L 169.383229 246.348 
L 170.46903 244.458 
L 171.554831 246.348 
L 174.812235 240.678 
L 175.898036 242.568 
L 176.983837 240.678 
L 180.24124 246.348 
L 181.327042 244.458 
L 182.412843 246.348 
L 184.584445 242.568 
L 188.92765 250.128 
L 190.013451 248.238 
L 192.185053 252.018 
L 193.270854 250.128 
L 194.356656 252.018 
L 196.528258 248.238 
L 197.614059 250.128 
L 199.785661 246.348 
L 200.871462 248.238 
L 201.957264 246.348 
L 204.128866 250.128 
L 205.214667 248.238 
L 207.386269 252.018 
L 211.729474 244.458 
L 212.815275 246.348 
L 218.244281 236.898 
L 219.330082 238.788 
L 221.501684 235.008 
L 222.587486 236.898 
L 228.016491 227.448 
L 229.102292 229.338 
L 230.188094 227.448 
L 231.273895 229.338 
L 232.359696 227.448 
L 233.445497 229.338 
L 235.617099 225.558 
L 236.702901 227.448 
L 237.788702 225.558 
L 238.874503 227.448 
L 241.046105 223.668 
L 242.131906 225.558 
L 245.38931 219.888 
L 246.475111 221.778 
L 247.560912 219.888 
L 249.732514 223.668 
L 251.904117 219.888 
L 254.075719 223.668 
L 256.247321 219.888 
L 257.333123 221.778 
L 258.418924 219.888 
L 260.590526 223.668 
L 274.705941 199.098 
L 276.877543 202.878 
L 280.134947 197.208 
L 281.220748 199.098 
L 285.563953 191.538 
L 286.649754 193.428 
L 287.735555 191.538 
L 289.907157 195.318 
L 295.336163 185.868 
L 296.421964 187.758 
L 301.85097 178.308 
L 302.936771 180.198 
L 309.451578 168.858 
L 310.537379 170.748 
L 312.708981 166.968 
L 314.880584 170.748 
L 315.966385 168.858 
L 318.137987 172.638 
L 321.395391 166.968 
L 323.566993 170.748 
L 324.652794 168.858 
L 325.738595 170.748 
L 326.824396 168.858 
L 327.910198 170.748 
L 332.253402 163.188 
L 334.425005 166.968 
L 338.768209 159.408 
L 339.85401 161.298 
L 343.111414 155.628 
L 344.197215 157.518 
L 346.368817 153.738 
L 347.454618 155.628 
L 348.54042 153.738 
L 349.626221 155.628 
L 353.969425 148.068 
L 355.055227 149.958 
L 356.141028 148.068 
L 358.31263 151.848 
L 360.484232 148.068 
L 361.570033 149.958 
L 364.827437 144.288 
L 365.913238 146.178 
L 378.942852 123.498 
L 381.114454 127.278 
L 382.200255 125.388 
L 383.286057 127.278 
L 385.457659 123.498 
L 386.54346 125.388 
L 387.629261 123.498 
L 388.715062 125.388 
L 390.886665 121.608 
L 391.972466 123.498 
L 398.487273 112.158 
L 398.487273 112.158 
" style="fill:none;stroke:#740a01;stroke-linecap:square;stroke-opacity:0.3;stroke-width:0.5;"/>
   </g>
   <g id="line2d_29">
    <path clip-path="url(#p85131284a0)" d="M 73.832727 287.928 
L 77.090131 293.598 
L 80.347534 287.928 
L 81.433335 289.818 
L 83.604938 286.038 
L 89.033943 295.488 
L 90.119745 293.598 
L 91.205546 295.488 
L 97.720353 284.148 
L 99.891955 287.928 
L 103.149358 282.258 
L 105.320961 286.038 
L 110.749967 276.588 
L 114.00737 282.258 
L 115.093171 280.368 
L 116.178972 282.258 
L 117.264773 280.368 
L 119.436376 284.148 
L 121.607978 280.368 
L 122.693779 282.258 
L 124.865382 278.478 
L 125.951183 280.368 
L 127.036984 278.478 
L 130.294387 284.148 
L 131.380189 282.258 
L 132.46599 284.148 
L 135.723393 278.478 
L 136.809194 280.368 
L 138.980797 276.588 
L 142.2382 282.258 
L 144.409802 278.478 
L 146.581405 282.258 
L 149.838808 276.588 
L 150.924609 278.478 
L 156.353615 269.028 
L 157.439416 270.918 
L 158.525217 269.028 
L 161.782621 274.698 
L 163.954223 270.918 
L 165.040024 272.808 
L 170.46903 263.358 
L 172.640632 267.138 
L 175.898036 261.468 
L 178.069638 265.248 
L 179.155439 263.358 
L 180.24124 265.248 
L 193.270854 242.568 
L 194.356656 244.458 
L 196.528258 240.678 
L 197.614059 242.568 
L 198.69986 240.678 
L 199.785661 242.568 
L 204.128866 235.008 
L 205.214667 236.898 
L 209.557872 229.338 
L 210.643673 231.228 
L 213.901076 225.558 
L 214.986877 227.448 
L 217.15848 223.668 
L 219.330082 227.448 
L 220.415883 225.558 
L 226.93069 236.898 
L 231.273895 229.338 
L 232.359696 231.228 
L 233.445497 229.338 
L 235.617099 233.118 
L 239.960304 225.558 
L 241.046105 227.448 
L 256.247321 200.988 
L 259.504725 206.658 
L 260.590526 204.768 
L 261.676327 206.658 
L 264.933731 200.988 
L 266.019532 202.878 
L 268.191134 199.098 
L 269.276935 200.988 
L 271.448538 197.208 
L 273.62014 200.988 
L 277.963344 193.428 
L 280.134947 197.208 
L 281.220748 195.318 
L 282.306549 197.208 
L 286.649754 189.648 
L 287.735555 191.538 
L 289.907157 187.758 
L 290.992958 189.648 
L 293.164561 185.868 
L 295.336163 189.648 
L 300.765169 180.198 
L 302.936771 183.978 
L 306.194175 178.308 
L 307.279976 180.198 
L 319.223788 159.408 
L 320.30959 161.298 
L 323.566993 155.628 
L 324.652794 157.518 
L 327.910198 151.848 
L 331.167601 157.518 
L 333.339203 153.738 
L 334.425005 155.628 
L 335.510806 153.738 
L 337.682408 157.518 
L 338.768209 155.628 
L 342.025613 161.298 
L 344.197215 157.518 
L 345.283016 159.408 
L 347.454618 155.628 
L 348.54042 157.518 
L 350.712022 153.738 
L 353.969425 159.408 
L 359.398431 149.958 
L 360.484232 151.848 
L 362.655835 148.068 
L 363.741636 149.958 
L 364.827437 148.068 
L 368.08484 153.738 
L 371.342244 148.068 
L 372.428045 149.958 
L 374.599647 146.178 
L 375.685448 148.068 
L 380.028653 140.508 
L 381.114454 142.398 
L 383.286057 138.618 
L 384.371858 140.508 
L 390.886665 129.168 
L 393.058267 132.948 
L 398.487273 123.498 
L 398.487273 123.498 
" style="fill:none;stroke:#740a01;stroke-linecap:square;stroke-opacity:0.3;stroke-width:0.5;"/>
   </g>
   <g id="line2d_30">
    <path clip-path="url(#p85131284a0)" d="M 73.832727 295.488 
L 76.00433 291.708 
L 77.090131 293.598 
L 78.175932 291.708 
L 79.261733 293.598 
L 84.690739 284.148 
L 86.862341 287.928 
L 87.948142 286.038 
L 89.033943 287.928 
L 90.119745 286.038 
L 91.205546 287.928 
L 93.377148 284.148 
L 94.462949 286.038 
L 97.720353 280.368 
L 103.149358 289.818 
L 106.406762 284.148 
L 108.578364 287.928 
L 110.749967 284.148 
L 111.835768 286.038 
L 122.693779 267.138 
L 123.77958 269.028 
L 125.951183 265.248 
L 127.036984 267.138 
L 130.294387 261.468 
L 131.380189 263.358 
L 132.46599 261.468 
L 133.551791 263.358 
L 134.637592 261.468 
L 135.723393 263.358 
L 136.809194 261.468 
L 137.894995 263.358 
L 138.980797 261.468 
L 140.066598 263.358 
L 141.152399 261.468 
L 142.2382 263.358 
L 143.324001 261.468 
L 146.581405 267.138 
L 148.753007 263.358 
L 150.924609 267.138 
L 154.182013 261.468 
L 156.353615 265.248 
L 159.611019 259.578 
L 160.69682 261.468 
L 168.297428 248.238 
L 169.383229 250.128 
L 175.898036 238.788 
L 176.983837 240.678 
L 181.327042 233.118 
L 183.498644 236.898 
L 187.841849 229.338 
L 188.92765 231.228 
L 190.013451 229.338 
L 191.099252 231.228 
L 194.356656 225.558 
L 195.442457 227.448 
L 199.785661 219.888 
L 200.871462 221.778 
L 201.957264 219.888 
L 203.043065 221.778 
L 210.643673 208.548 
L 211.729474 210.438 
L 212.815275 208.548 
L 214.986877 212.328 
L 216.072679 210.438 
L 217.15848 212.328 
L 222.587486 202.878 
L 223.673287 204.768 
L 228.016491 197.208 
L 229.102292 199.098 
L 230.188094 197.208 
L 232.359696 200.988 
L 236.702901 193.428 
L 237.788702 195.318 
L 238.874503 193.428 
L 239.960304 195.318 
L 242.131906 191.538 
L 243.217708 193.428 
L 251.904117 178.308 
L 254.075719 182.088 
L 255.16152 180.198 
L 257.333123 183.978 
L 258.418924 182.088 
L 259.504725 183.978 
L 267.105333 170.748 
L 270.362736 176.418 
L 271.448538 174.528 
L 272.534339 176.418 
L 273.62014 174.528 
L 275.791742 178.308 
L 277.963344 174.528 
L 279.049146 176.418 
L 284.478151 166.968 
L 285.563953 168.858 
L 288.821356 163.188 
L 292.07876 168.858 
L 295.336163 163.188 
L 296.421964 165.078 
L 298.593566 161.298 
L 302.936771 168.858 
L 308.365777 159.408 
L 309.451578 161.298 
L 310.537379 159.408 
L 311.62318 161.298 
L 318.137987 149.958 
L 319.223788 151.848 
L 320.30959 149.958 
L 321.395391 151.848 
L 326.824396 142.398 
L 330.0818 148.068 
L 331.167601 146.178 
L 335.510806 153.738 
L 338.768209 148.068 
L 339.85401 149.958 
L 343.111414 144.288 
L 344.197215 146.178 
L 345.283016 144.288 
L 347.454618 148.068 
L 348.54042 146.178 
L 350.712022 149.958 
L 352.883624 146.178 
L 353.969425 148.068 
L 355.055227 146.178 
L 360.484232 155.628 
L 363.741636 149.958 
L 364.827437 151.848 
L 365.913238 149.958 
L 366.999039 151.848 
L 369.170642 148.068 
L 370.256443 149.958 
L 372.428045 146.178 
L 373.513846 148.068 
L 374.599647 146.178 
L 375.685448 148.068 
L 376.77125 146.178 
L 377.857051 148.068 
L 380.028653 144.288 
L 383.286057 149.958 
L 387.629261 142.398 
L 388.715062 144.288 
L 389.800863 142.398 
L 390.886665 144.288 
L 394.144068 138.618 
L 395.229869 140.508 
L 398.487273 134.838 
L 398.487273 134.838 
" style="fill:none;stroke:#740a01;stroke-linecap:square;stroke-opacity:0.3;stroke-width:0.5;"/>
   </g>
   <g id="line2d_31">
    <path clip-path="url(#p85131284a0)" d="M 73.832727 289.818 
L 77.090131 295.488 
L 79.261733 291.708 
L 80.347534 293.598 
L 81.433335 291.708 
L 83.604938 295.488 
L 85.77654 291.708 
L 86.862341 293.598 
L 92.291347 284.148 
L 93.377148 286.038 
L 99.891955 274.698 
L 100.977756 276.588 
L 108.578364 263.358 
L 112.921569 270.918 
L 121.607978 255.798 
L 122.693779 257.688 
L 127.036984 250.128 
L 128.122785 252.018 
L 132.46599 244.458 
L 133.551791 246.348 
L 134.637592 244.458 
L 135.723393 246.348 
L 140.066598 238.788 
L 141.152399 240.678 
L 142.2382 238.788 
L 143.324001 240.678 
L 146.581405 235.008 
L 149.838808 240.678 
L 157.439416 227.448 
L 159.611019 231.228 
L 163.954223 223.668 
L 165.040024 225.558 
L 166.125825 223.668 
L 167.211627 225.558 
L 174.812235 212.328 
L 175.898036 214.218 
L 180.24124 206.658 
L 182.412843 210.438 
L 183.498644 208.548 
L 184.584445 210.438 
L 188.92765 202.878 
L 190.013451 204.768 
L 191.099252 202.878 
L 193.270854 206.658 
L 196.528258 200.988 
L 197.614059 202.878 
L 198.69986 200.988 
L 199.785661 202.878 
L 203.043065 197.208 
L 204.128866 199.098 
L 205.214667 197.208 
L 207.386269 200.988 
L 209.557872 197.208 
L 210.643673 199.098 
L 213.901076 193.428 
L 214.986877 195.318 
L 216.072679 193.428 
L 217.15848 195.318 
L 225.844889 180.198 
L 226.93069 182.088 
L 236.702901 165.078 
L 237.788702 166.968 
L 242.131906 159.408 
L 243.217708 161.298 
L 248.646713 151.848 
L 249.732514 153.738 
L 254.075719 146.178 
L 256.247321 149.958 
L 259.504725 144.288 
L 261.676327 148.068 
L 262.762128 146.178 
L 264.933731 149.958 
L 266.019532 148.068 
L 267.105333 149.958 
L 270.362736 144.288 
L 271.448538 146.178 
L 272.534339 144.288 
L 273.62014 146.178 
L 274.705941 144.288 
L 275.791742 146.178 
L 276.877543 144.288 
L 277.963344 146.178 
L 279.049146 144.288 
L 280.134947 146.178 
L 282.306549 142.398 
L 283.39235 144.288 
L 284.478151 142.398 
L 285.563953 144.288 
L 286.649754 142.398 
L 287.735555 144.288 
L 294.250362 132.948 
L 297.507765 138.618 
L 301.85097 131.058 
L 302.936771 132.948 
L 307.279976 125.388 
L 308.365777 127.278 
L 312.708981 119.718 
L 313.794783 121.608 
L 314.880584 119.718 
L 317.052186 123.498 
L 322.481192 114.048 
L 324.652794 117.828 
L 332.253402 104.598 
L 333.339203 106.488 
L 336.596607 100.818 
L 337.682408 102.708 
L 340.939811 97.038 
L 342.025613 98.928 
L 343.111414 97.038 
L 345.283016 100.818 
L 347.454618 97.038 
L 348.54042 98.928 
L 352.883624 91.368 
L 353.969425 93.258 
L 355.055227 91.368 
L 356.141028 93.258 
L 357.226829 91.368 
L 358.31263 93.258 
L 360.484232 89.478 
L 361.570033 91.368 
L 363.741636 87.588 
L 364.827437 89.478 
L 366.999039 85.698 
L 368.08484 87.588 
L 374.599647 76.248 
L 375.685448 78.138 
L 376.77125 76.248 
L 377.857051 78.138 
L 382.200255 70.578 
L 384.371858 74.358 
L 388.715062 66.798 
L 390.886665 70.578 
L 395.229869 63.018 
L 398.487273 68.688 
L 398.487273 68.688 
" style="fill:none;stroke:#740a01;stroke-linecap:square;stroke-opacity:0.3;stroke-width:0.5;"/>
   </g>
   <g id="line2d_32">
    <path clip-path="url(#p85131284a0)" d="M 73.832727 286.038 
L 74.918528 287.928 
L 76.00433 286.038 
L 78.175932 289.818 
L 80.347534 286.038 
L 81.433335 287.928 
L 85.77654 280.368 
L 87.948142 284.148 
L 89.033943 282.258 
L 92.291347 287.928 
L 93.377148 286.038 
L 95.54875 289.818 
L 97.720353 286.038 
L 99.891955 289.818 
L 102.063557 286.038 
L 103.149358 287.928 
L 104.23516 286.038 
L 106.406762 289.818 
L 107.492563 287.928 
L 108.578364 289.818 
L 109.664165 287.928 
L 111.835768 291.708 
L 115.093171 286.038 
L 120.522177 295.488 
L 121.607978 293.598 
L 122.693779 295.488 
L 123.77958 293.598 
L 124.865382 295.488 
L 127.036984 291.708 
L 128.122785 293.598 
L 133.551791 284.148 
L 135.723393 287.928 
L 136.809194 286.038 
L 137.894995 287.928 
L 140.066598 284.148 
L 142.2382 287.928 
L 145.495604 282.258 
L 146.581405 284.148 
L 152.01041 274.698 
L 153.096212 276.588 
L 156.353615 270.918 
L 158.525217 274.698 
L 159.611019 272.808 
L 160.69682 274.698 
L 161.782621 272.808 
L 166.125825 280.368 
L 168.297428 276.588 
L 169.383229 278.478 
L 174.812235 269.028 
L 175.898036 270.918 
L 179.155439 265.248 
L 181.327042 269.028 
L 182.412843 267.138 
L 183.498644 269.028 
L 185.670246 265.248 
L 186.756047 267.138 
L 188.92765 263.358 
L 190.013451 265.248 
L 193.270854 259.578 
L 196.528258 265.248 
L 197.614059 263.358 
L 200.871462 269.028 
L 201.957264 267.138 
L 204.128866 270.918 
L 206.300468 267.138 
L 207.386269 269.028 
L 209.557872 265.248 
L 210.643673 267.138 
L 213.901076 261.468 
L 214.986877 263.358 
L 216.072679 261.468 
L 217.15848 263.358 
L 218.244281 261.468 
L 219.330082 263.358 
L 220.415883 261.468 
L 223.673287 267.138 
L 229.102292 257.688 
L 230.188094 259.578 
L 234.531298 252.018 
L 237.788702 257.688 
L 242.131906 250.128 
L 244.303509 253.908 
L 245.38931 252.018 
L 246.475111 253.908 
L 249.732514 248.238 
L 250.818316 250.128 
L 251.904117 248.238 
L 256.247321 255.798 
L 266.019532 238.788 
L 268.191134 242.568 
L 270.362736 238.788 
L 271.448538 240.678 
L 272.534339 238.788 
L 273.62014 240.678 
L 280.134947 229.338 
L 281.220748 231.228 
L 283.39235 227.448 
L 284.478151 229.338 
L 285.563953 227.448 
L 286.649754 229.338 
L 287.735555 227.448 
L 288.821356 229.338 
L 290.992958 225.558 
L 297.507765 236.898 
L 302.936771 227.448 
L 304.022572 229.338 
L 305.108373 227.448 
L 306.194175 229.338 
L 312.708981 217.998 
L 313.794783 219.888 
L 314.880584 217.998 
L 315.966385 219.888 
L 317.052186 217.998 
L 320.30959 223.668 
L 321.395391 221.778 
L 322.481192 223.668 
L 327.910198 214.218 
L 328.995999 216.108 
L 332.253402 210.438 
L 333.339203 212.328 
L 335.510806 208.548 
L 337.682408 212.328 
L 339.85401 208.548 
L 342.025613 212.328 
L 343.111414 210.438 
L 346.368817 216.108 
L 347.454618 214.218 
L 348.54042 216.108 
L 349.626221 214.218 
L 352.883624 219.888 
L 359.398431 208.548 
L 361.570033 212.328 
L 363.741636 208.548 
L 364.827437 210.438 
L 366.999039 206.658 
L 368.08484 208.548 
L 378.942852 189.648 
L 380.028653 191.538 
L 381.114454 189.648 
L 382.200255 191.538 
L 383.286057 189.648 
L 384.371858 191.538 
L 385.457659 189.648 
L 386.54346 191.538 
L 387.629261 189.648 
L 388.715062 191.538 
L 390.886665 187.758 
L 391.972466 189.648 
L 398.487273 178.308 
L 398.487273 178.308 
" style="fill:none;stroke:#740a01;stroke-linecap:square;stroke-opacity:0.3;stroke-width:0.5;"/>
   </g>
   <g id="line2d_33">
    <path clip-path="url(#p85131284a0)" d="M 73.832727 291.708 
L 74.918528 289.818 
L 77.090131 293.598 
L 78.175932 291.708 
L 79.261733 293.598 
L 80.347534 291.708 
L 81.433335 293.598 
L 83.604938 289.818 
L 86.862341 295.488 
L 90.119745 289.818 
L 91.205546 291.708 
L 92.291347 289.818 
L 93.377148 291.708 
L 95.54875 287.928 
L 96.634552 289.818 
L 97.720353 287.928 
L 98.806154 289.818 
L 100.977756 286.038 
L 103.149358 289.818 
L 105.320961 286.038 
L 106.406762 287.928 
L 108.578364 284.148 
L 110.749967 287.928 
L 112.921569 284.148 
L 114.00737 286.038 
L 115.093171 284.148 
L 116.178972 286.038 
L 119.436376 280.368 
L 120.522177 282.258 
L 121.607978 280.368 
L 123.77958 284.148 
L 124.865382 282.258 
L 129.208586 289.818 
L 137.894995 274.698 
L 141.152399 280.368 
L 143.324001 276.588 
L 144.409802 278.478 
L 147.667206 272.808 
L 149.838808 276.588 
L 150.924609 274.698 
L 152.01041 276.588 
L 163.954223 255.798 
L 165.040024 257.688 
L 166.125825 255.798 
L 167.211627 257.688 
L 168.297428 255.798 
L 169.383229 257.688 
L 171.554831 253.908 
L 172.640632 255.798 
L 174.812235 252.018 
L 175.898036 253.908 
L 179.155439 248.238 
L 182.412843 253.908 
L 184.584445 250.128 
L 185.670246 252.018 
L 187.841849 248.238 
L 188.92765 250.128 
L 190.013451 248.238 
L 192.185053 252.018 
L 194.356656 248.238 
L 196.528258 252.018 
L 197.614059 250.128 
L 198.69986 252.018 
L 204.128866 242.568 
L 205.214667 244.458 
L 206.300468 242.568 
L 207.386269 244.458 
L 210.643673 238.788 
L 211.729474 240.678 
L 214.986877 235.008 
L 217.15848 238.788 
L 218.244281 236.898 
L 219.330082 238.788 
L 220.415883 236.898 
L 222.587486 240.678 
L 224.759088 236.898 
L 226.93069 240.678 
L 229.102292 236.898 
L 230.188094 238.788 
L 233.445497 233.118 
L 234.531298 235.008 
L 236.702901 231.228 
L 238.874503 235.008 
L 247.560912 219.888 
L 248.646713 221.778 
L 251.904117 216.108 
L 254.075719 219.888 
L 255.16152 217.998 
L 257.333123 221.778 
L 259.504725 217.998 
L 260.590526 219.888 
L 263.847929 214.218 
L 266.019532 217.998 
L 267.105333 216.108 
L 268.191134 217.998 
L 269.276935 216.108 
L 270.362736 217.998 
L 276.877543 206.658 
L 279.049146 210.438 
L 280.134947 208.548 
L 281.220748 210.438 
L 284.478151 204.768 
L 285.563953 206.658 
L 286.649754 204.768 
L 290.992958 212.328 
L 292.07876 210.438 
L 293.164561 212.328 
L 295.336163 208.548 
L 299.679368 216.108 
L 300.765169 214.218 
L 301.85097 216.108 
L 309.451578 202.878 
L 312.708981 208.548 
L 313.794783 206.658 
L 317.052186 212.328 
L 318.137987 210.438 
L 319.223788 212.328 
L 325.738595 200.988 
L 330.0818 208.548 
L 334.425005 200.988 
L 335.510806 202.878 
L 337.682408 199.098 
L 338.768209 200.988 
L 339.85401 199.098 
L 340.939811 200.988 
L 344.197215 195.318 
L 345.283016 197.208 
L 346.368817 195.318 
L 348.54042 199.098 
L 349.626221 197.208 
L 350.712022 199.098 
L 353.969425 193.428 
L 356.141028 197.208 
L 361.570033 187.758 
L 362.655835 189.648 
L 363.741636 187.758 
L 366.999039 193.428 
L 370.256443 187.758 
L 372.428045 191.538 
L 378.942852 180.198 
L 381.114454 183.978 
L 388.715062 170.748 
L 393.058267 178.308 
L 394.144068 176.418 
L 396.31567 180.198 
L 398.487273 176.418 
L 398.487273 176.418 
" style="fill:none;stroke:#740a01;stroke-linecap:square;stroke-opacity:0.3;stroke-width:0.5;"/>
   </g>
   <g id="line2d_34">
    <path clip-path="url(#p85131284a0)" d="M 73.832727 291.708 
L 74.918528 289.818 
L 76.00433 291.708 
L 77.090131 289.818 
L 80.347534 295.488 
L 84.690739 287.928 
L 85.77654 289.818 
L 91.205546 280.368 
L 92.291347 282.258 
L 93.377148 280.368 
L 96.634552 286.038 
L 100.977756 278.478 
L 102.063557 280.368 
L 104.23516 276.588 
L 105.320961 278.478 
L 106.406762 276.588 
L 108.578364 280.368 
L 110.749967 276.588 
L 112.921569 280.368 
L 115.093171 276.588 
L 116.178972 278.478 
L 118.350575 274.698 
L 119.436376 276.588 
L 120.522177 274.698 
L 121.607978 276.588 
L 122.693779 274.698 
L 124.865382 278.478 
L 128.122785 272.808 
L 129.208586 274.698 
L 131.380189 270.918 
L 132.46599 272.808 
L 134.637592 269.028 
L 135.723393 270.918 
L 136.809194 269.028 
L 137.894995 270.918 
L 145.495604 257.688 
L 146.581405 259.578 
L 147.667206 257.688 
L 149.838808 261.468 
L 152.01041 257.688 
L 153.096212 259.578 
L 154.182013 257.688 
L 156.353615 261.468 
L 158.525217 257.688 
L 159.611019 259.578 
L 171.554831 238.788 
L 172.640632 240.678 
L 179.155439 229.338 
L 182.412843 235.008 
L 186.756047 227.448 
L 187.841849 229.338 
L 190.013451 225.558 
L 191.099252 227.448 
L 194.356656 221.778 
L 196.528258 225.558 
L 198.69986 221.778 
L 199.785661 223.668 
L 200.871462 221.778 
L 201.957264 223.668 
L 204.128866 219.888 
L 205.214667 221.778 
L 206.300468 219.888 
L 209.557872 225.558 
L 210.643673 223.668 
L 211.729474 225.558 
L 216.072679 217.998 
L 217.15848 219.888 
L 218.244281 217.998 
L 219.330082 219.888 
L 222.587486 214.218 
L 223.673287 216.108 
L 233.445497 199.098 
L 235.617099 202.878 
L 239.960304 195.318 
L 241.046105 197.208 
L 245.38931 189.648 
L 246.475111 191.538 
L 250.818316 183.978 
L 251.904117 185.868 
L 252.989918 183.978 
L 254.075719 185.868 
L 257.333123 180.198 
L 259.504725 183.978 
L 262.762128 178.308 
L 264.933731 182.088 
L 267.105333 178.308 
L 268.191134 180.198 
L 269.276935 178.308 
L 270.362736 180.198 
L 275.791742 170.748 
L 277.963344 174.528 
L 285.563953 161.298 
L 286.649754 163.188 
L 292.07876 153.738 
L 293.164561 155.628 
L 299.679368 144.288 
L 300.765169 146.178 
L 302.936771 142.398 
L 304.022572 144.288 
L 306.194175 140.508 
L 308.365777 144.288 
L 309.451578 142.398 
L 310.537379 144.288 
L 312.708981 140.508 
L 313.794783 142.398 
L 315.966385 138.618 
L 317.052186 140.508 
L 323.566993 129.168 
L 324.652794 131.058 
L 325.738595 129.168 
L 326.824396 131.058 
L 327.910198 129.168 
L 328.995999 131.058 
L 330.0818 129.168 
L 334.425005 136.728 
L 335.510806 134.838 
L 336.596607 136.728 
L 343.111414 125.388 
L 344.197215 127.278 
L 346.368817 123.498 
L 347.454618 125.388 
L 350.712022 119.718 
L 351.797823 121.608 
L 352.883624 119.718 
L 353.969425 121.608 
L 357.226829 115.938 
L 360.484232 121.608 
L 361.570033 119.718 
L 362.655835 121.608 
L 363.741636 119.718 
L 364.827437 121.608 
L 375.685448 102.708 
L 376.77125 104.598 
L 378.942852 100.818 
L 380.028653 102.708 
L 382.200255 98.928 
L 383.286057 100.818 
L 387.629261 93.258 
L 389.800863 97.038 
L 396.31567 85.698 
L 397.401472 87.588 
L 398.487273 85.698 
L 398.487273 85.698 
" style="fill:none;stroke:#740a01;stroke-linecap:square;stroke-opacity:0.3;stroke-width:0.5;"/>
   </g>
   <g id="patch_3">
    <path d="M 57.6 307.584 
L 57.6 41.472 
" style="fill:none;stroke:#000000;stroke-linecap:square;stroke-linejoin:miter;stroke-width:0.8;"/>
   </g>
   <g id="patch_4">
    <path d="M 414.72 307.584 
L 414.72 41.472 
" style="fill:none;stroke:#000000;stroke-linecap:square;stroke-linejoin:miter;stroke-width:0.8;"/>
   </g>
   <g id="patch_5">
    <path d="M 57.6 307.584 
L 414.72 307.584 
" style="fill:none;stroke:#000000;stroke-linecap:square;stroke-linejoin:miter;stroke-width:0.8;"/>
   </g>
   <g id="patch_6">
    <path d="M 57.6 41.472 
L 414.72 41.472 
" style="fill:none;stroke:#000000;stroke-linecap:square;stroke-linejoin:miter;stroke-width:0.8;"/>
   </g>
  </g>
 </g>
 <defs>
  <clipPath id="p85131284a0">
   <rect height="266.112" width="357.12" x="57.6" y="41.472"/>
  </clipPath>
 </defs>
</svg>
